<?xml version="1.0" encoding="UTF-8" standalone="no"?><svg xmlns="http://www.w3.org/2000/svg" xmlns:xlink="http://www.w3.org/1999/xlink" contentScriptType="application/ecmascript" contentStyleType="text/css" height="810.6px" preserveAspectRatio="none" style="width:2636px;height:810px;" version="1.1" viewBox="0 0 2636 810" width="2636.9px" zoomAndPan="magnify"><defs><filter height="300%" id="fgt9eqjctfphl" width="300%" x="-1" y="-1"><feGaussianBlur result="blurOut" stdDeviation="1.4"/><feColorMatrix in="blurOut" result="blurOut2" type="matrix" values="0 0 0 0 0 0 0 0 0 0 0 0 0 0 0 0 0 0 .4 0"/><feOffset dx="2.8" dy="2.8" in="blurOut2" result="blurOut3"/><feBlend in="SourceGraphic" in2="blurOut3" mode="normal"/></filter></defs><g><!--MD5=[8f535ef5bcd539742f0ec972dae92f9f]
cluster Country List Add/Remove CZUC-0002/3--><rect fill="#FFFFFF" filter="url(#fgt9eqjctfphl)" height="158.2" style="stroke: #000000; stroke-width: 1.0499999999999998;" width="198.8" x="1365.7" y="207.9"/><text fill="#000000" font-family="sans-serif" font-size="9.8" font-weight="bold" lengthAdjust="spacingAndGlyphs" textLength="187.6" x="1371.3" y="219.4732">Country List Add/Remove CZUC-0002/3</text><!--MD5=[a524bb7f523e7204aeb74dd67138318b]
cluster Analysis Rendering CZUC-0006--><rect fill="#FFFFFF" filter="url(#fgt9eqjctfphl)" height="147.7" style="stroke: #000000; stroke-width: 1.0499999999999998;" width="1327.2" x="15.4" y="655.2"/><text fill="#000000" font-family="sans-serif" font-size="9.8" font-weight="bold" lengthAdjust="spacingAndGlyphs" textLength="149.8" x="604.1" y="666.7732">Analysis Rendering CZUC-0006</text><!--MD5=[bb66e9f08326059cad88e5c1f7f21166]
cluster Analysis Selection CZUC-0004--><rect fill="#FFFFFF" filter="url(#fgt9eqjctfphl)" height="158.2" style="stroke: #000000; stroke-width: 1.0499999999999998;" width="644.7" x="30.8" y="466.2"/><text fill="#000000" font-family="sans-serif" font-size="9.8" font-weight="bold" lengthAdjust="spacingAndGlyphs" textLength="144.2" x="281.05" y="477.7732">Analysis Selection CZUC-0004</text><!--MD5=[a19776f04a049f7fce4be68185fa3a20]
cluster Login System CZUC-0001--><rect fill="#FFFFFF" filter="url(#fgt9eqjctfphl)" height="79.8" style="stroke: #000000; stroke-width: 1.0499999999999998;" width="156.8" x="30.8" y="309.4"/><text fill="#000000" font-family="sans-serif" font-size="9.8" font-weight="bold" lengthAdjust="spacingAndGlyphs" textLength="120.4" x="49" y="320.9732">Login System CZUC-0001</text><!--MD5=[d7074ac20fa627d7f592f739f542c858]
class CountryListBuilder--><rect fill="#FEFECE" filter="url(#fgt9eqjctfphl)" height="120.7664" id="CountryListBuilder" style="stroke: #A80036; stroke-width: 1.0499999999999998;" width="137.2" x="1396.5" y="233.45"/><ellipse cx="1426.845" cy="244.65" fill="#ADD1B2" rx="7.7" ry="7.7" style="stroke: #A80036; stroke-width: 0.7;"/><path d="M1428.245,242.2 Q1428.3872,241.85 1428.5512,241.675 Q1428.7153,241.5 1428.9013,241.5 Q1429.2294,241.5 1429.4372,241.6969 Q1429.645,241.8937 1429.645,242.3531 L1429.645,243.4469 Q1429.645,243.9062 1429.4481,244.1031 Q1429.2512,244.3 1428.945,244.3 Q1428.6716,244.3 1428.4966,244.1797 Q1428.3216,244.0594 1428.245,243.7422 Q1428.2122,243.5234 1428.0919,243.4031 Q1427.8731,243.1734 1427.4794,243.0422 Q1427.0856,242.9 1426.6919,242.9 Q1426.1997,242.9 1425.7841,243.0969 Q1425.3794,243.2938 1425.0622,243.7313 Q1424.745,244.1688 1424.745,244.7703 L1424.745,245.4156 Q1424.745,246.1375 1425.3356,246.6187 Q1425.9262,247.1 1426.9763,247.1 Q1427.5997,247.1 1428.0372,246.9578 Q1428.2888,246.8813 1428.5731,246.6297 Q1428.7591,246.4875 1428.8575,246.4438 Q1428.9559,246.4 1429.0762,246.4 Q1429.3059,246.4 1429.47,246.5859 Q1429.645,246.7609 1429.645,247.0125 Q1429.645,247.2531 1429.4044,247.5375 Q1429.0544,247.9531 1428.4966,248.1828 Q1427.7637,248.5 1426.8669,248.5 Q1425.8169,248.5 1424.9747,248.0844 Q1424.2966,247.7563 1423.8153,247.0453 Q1423.345,246.3344 1423.345,245.4922 L1423.345,244.7266 Q1423.345,243.8516 1423.7606,243.0859 Q1424.1872,242.3203 1424.92,241.9156 Q1425.6638,241.5 1426.495,241.5 Q1426.9981,241.5 1427.4356,241.675 Q1427.8731,241.85 1428.245,242.2 Z "/><text fill="#000000" font-family="sans-serif" font-size="8.4" lengthAdjust="spacingAndGlyphs" textLength="70.7" x="1441.055" y="248.0871">CountryListBuilder</text><line style="stroke: #A80036; stroke-width: 1.0499999999999998;" x1="1397.2" x2="1533" y1="255.85" y2="255.85"/><text fill="#000000" font-family="sans-serif" font-size="7.7" lengthAdjust="spacingAndGlyphs" textLength="30.1" x="1400.7" y="266.6433">singleton</text><text fill="#000000" font-family="sans-serif" font-size="7.7" lengthAdjust="spacingAndGlyphs" textLength="77" x="1400.7" y="276.3284">master list of countries</text><line style="stroke: #A80036; stroke-width: 0.7;" x1="1397.2" x2="1533" y1="280.8203" y2="280.8203"/><rect fill="#F24D5C" height="4.2" style="stroke: #C82930; stroke-width: 0.7;" width="4.2" x="1402.1" y="286.4203"/><text fill="#000000" font-family="sans-serif" font-size="7.7" lengthAdjust="spacingAndGlyphs" textLength="67.2" x="1410.5" y="291.6136">CountryListBuilder()</text><ellipse cx="1404.2" cy="298.2055" fill="#84BE84" rx="2.1" ry="2.1" style="stroke: #038048; stroke-width: 0.7;"/><text fill="#000000" font-family="sans-serif" font-size="7.7" lengthAdjust="spacingAndGlyphs" textLength="108.5" x="1410.5" y="301.2987">getInstance():CountryListBuilder</text><ellipse cx="1404.2" cy="307.8906" fill="#84BE84" rx="2.1" ry="2.1" style="stroke: #038048; stroke-width: 0.7;"/><text fill="#000000" font-family="sans-serif" font-size="7.7" lengthAdjust="spacingAndGlyphs" textLength="89.6" x="1410.5" y="310.9839">getAllCountries():Country[]</text><ellipse cx="1404.2" cy="317.5758" fill="#84BE84" rx="2.1" ry="2.1" style="stroke: #038048; stroke-width: 0.7;"/><text fill="#000000" font-family="sans-serif" font-size="7.7" lengthAdjust="spacingAndGlyphs" textLength="70" x="1410.5" y="320.669">build():List&lt;Country&gt;</text><ellipse cx="1404.2" cy="327.2609" fill="#84BE84" rx="2.1" ry="2.1" style="stroke: #038048; stroke-width: 0.7;"/><text fill="#000000" font-family="sans-serif" font-size="7.7" lengthAdjust="spacingAndGlyphs" textLength="100.8" x="1410.5" y="330.3542">addCountry(Country):Boolean</text><ellipse cx="1404.2" cy="336.9461" fill="#84BE84" rx="2.1" ry="2.1" style="stroke: #038048; stroke-width: 0.7;"/><text fill="#000000" font-family="sans-serif" font-size="7.7" lengthAdjust="spacingAndGlyphs" textLength="113.4" x="1410.5" y="340.0394">removeCountry(Country):Boolean</text><ellipse cx="1404.2" cy="346.6312" fill="#84BE84" rx="2.1" ry="2.1" style="stroke: #038048; stroke-width: 0.7;"/><text fill="#000000" font-family="sans-serif" font-size="7.7" lengthAdjust="spacingAndGlyphs" textLength="119" x="1410.5" y="349.7245">getCountryByName(String):Country</text><!--MD5=[ec68a6a73b49a75392a9c182df039d70]
class AnalysisResultRenderer--><rect fill="#FEFECE" filter="url(#fgt9eqjctfphl)" height="52.9703" id="AnalysisResultRenderer" style="stroke: #A80036; stroke-width: 1.0499999999999998;" width="165.2" x="26.6" y="680.4"/><ellipse cx="59.325" cy="691.6" fill="#ADD1B2" rx="7.7" ry="7.7" style="stroke: #A80036; stroke-width: 0.7;"/><path d="M60.725,689.15 Q60.8672,688.8 61.0312,688.625 Q61.1953,688.45 61.3812,688.45 Q61.7094,688.45 61.9172,688.6469 Q62.125,688.8438 62.125,689.3031 L62.125,690.3969 Q62.125,690.8562 61.9281,691.0531 Q61.7312,691.25 61.425,691.25 Q61.1516,691.25 60.9766,691.1297 Q60.8016,691.0094 60.725,690.6922 Q60.6922,690.4734 60.5719,690.3531 Q60.3531,690.1234 59.9594,689.9922 Q59.5656,689.85 59.1719,689.85 Q58.6797,689.85 58.2641,690.0469 Q57.8594,690.2438 57.5422,690.6813 Q57.225,691.1188 57.225,691.7203 L57.225,692.3656 Q57.225,693.0875 57.8156,693.5687 Q58.4062,694.05 59.4563,694.05 Q60.0797,694.05 60.5172,693.9078 Q60.7688,693.8313 61.0531,693.5797 Q61.2391,693.4375 61.3375,693.3938 Q61.4359,693.35 61.5563,693.35 Q61.7859,693.35 61.95,693.5359 Q62.125,693.7109 62.125,693.9625 Q62.125,694.2031 61.8844,694.4875 Q61.5344,694.9031 60.9766,695.1328 Q60.2438,695.45 59.3469,695.45 Q58.2969,695.45 57.4547,695.0344 Q56.7766,694.7063 56.2953,693.9953 Q55.825,693.2844 55.825,692.4422 L55.825,691.6766 Q55.825,690.8016 56.2406,690.0359 Q56.6672,689.2703 57.4,688.8656 Q58.1438,688.45 58.975,688.45 Q59.4781,688.45 59.9156,688.625 Q60.3531,688.8 60.725,689.15 Z "/><text fill="#000000" font-family="sans-serif" font-size="8.4" lengthAdjust="spacingAndGlyphs" textLength="93.8" x="73.675" y="695.0371">AnalysisResultRenderer</text><line style="stroke: #A80036; stroke-width: 1.0499999999999998;" x1="27.3" x2="191.1" y1="702.8" y2="702.8"/><line style="stroke: #A80036; stroke-width: 1.0499999999999998;" x1="27.3" x2="191.1" y1="708.4" y2="708.4"/><ellipse cx="34.3" cy="716.1" fill="#84BE84" rx="2.1" ry="2.1" style="stroke: #038048; stroke-width: 0.7;"/><text fill="#000000" font-family="sans-serif" font-size="7.7" lengthAdjust="spacingAndGlyphs" textLength="147" x="40.6" y="719.1933">AnalysisResultRenderer(AnalysisExecutor)</text><ellipse cx="34.3" cy="725.7852" fill="#84BE84" rx="2.1" ry="2.1" style="stroke: #038048; stroke-width: 0.7;"/><text fill="#000000" font-family="sans-serif" font-size="7.7" lengthAdjust="spacingAndGlyphs" textLength="28" x="40.6" y="728.8784">render()</text><!--MD5=[d9c9abb7f72c3e6b865034d9e557cb87]
class IResultRenderer--><rect fill="#FEFECE" filter="url(#fgt9eqjctfphl)" height="43.2852" id="IResultRenderer" style="stroke: #A80036; stroke-width: 1.0499999999999998;" width="224" x="1107.4" y="714.7"/><ellipse cx="1184.575" cy="725.9" fill="#B4A7E5" rx="7.7" ry="7.7" style="stroke: #A80036; stroke-width: 0.7;"/><path d="M1185.275,723.8 L1185.275,728 L1186.675,728 L1187.0141,728 L1187.375,728.4375 L1187.375,728.7 L1187.375,728.9625 L1187.0141,729.4 L1186.675,729.4 L1182.475,729.4 L1182.1359,729.4 L1181.775,728.9625 L1181.775,728.7 L1181.775,728.4375 L1182.1359,728 L1182.475,728 L1183.875,728 L1183.875,723.8 L1182.475,723.8 L1182.1359,723.8 L1181.775,723.3625 L1181.775,723.1 L1181.775,722.8375 L1182.1359,722.4 L1182.475,722.4 L1186.675,722.4 L1187.0141,722.4 L1187.375,722.8375 L1187.375,723.1 L1187.375,723.3625 L1187.0141,723.8 L1186.675,723.8 L1185.275,723.8 Z "/><text fill="#000000" font-family="sans-serif" font-size="8.4" font-style="italic" lengthAdjust="spacingAndGlyphs" textLength="63.7" x="1198.925" y="729.3371">IResultRenderer</text><line style="stroke: #A80036; stroke-width: 1.0499999999999998;" x1="1108.1" x2="1330.7" y1="737.1" y2="737.1"/><line style="stroke: #A80036; stroke-width: 1.0499999999999998;" x1="1108.1" x2="1330.7" y1="742.7" y2="742.7"/><ellipse cx="1115.1" cy="750.4" fill="#84BE84" rx="2.1" ry="2.1" style="stroke: #038048; stroke-width: 0.7;"/><text fill="#000000" font-family="sans-serif" font-size="7.7" lengthAdjust="spacingAndGlyphs" textLength="205.8" x="1121.4" y="753.4933">getCircleRadii(Map&lt;Country, Double&gt;):Map&lt;Country, Integer&gt;</text><!--MD5=[36758d849a7f5f564f42096c5cb4fefc]
class ProportionalResultRenderer--><rect fill="#FEFECE" filter="url(#fgt9eqjctfphl)" height="43.2852" id="ProportionalResultRenderer" style="stroke: #A80036; stroke-width: 1.0499999999999998;" width="224" x="784.7" y="748.3"/><ellipse cx="839.475" cy="759.5" fill="#ADD1B2" rx="7.7" ry="7.7" style="stroke: #A80036; stroke-width: 0.7;"/><path d="M840.875,757.05 Q841.0172,756.7 841.1813,756.525 Q841.3453,756.35 841.5313,756.35 Q841.8594,756.35 842.0672,756.5469 Q842.275,756.7438 842.275,757.2031 L842.275,758.2969 Q842.275,758.7562 842.0781,758.9531 Q841.8812,759.15 841.575,759.15 Q841.3016,759.15 841.1266,759.0297 Q840.9516,758.9094 840.875,758.5922 Q840.8422,758.3734 840.7219,758.2531 Q840.5031,758.0234 840.1094,757.8922 Q839.7156,757.75 839.3219,757.75 Q838.8297,757.75 838.4141,757.9469 Q838.0094,758.1438 837.6922,758.5813 Q837.375,759.0188 837.375,759.6203 L837.375,760.2656 Q837.375,760.9875 837.9656,761.4688 Q838.5563,761.95 839.6062,761.95 Q840.2297,761.95 840.6672,761.8078 Q840.9187,761.7312 841.2031,761.4797 Q841.3891,761.3375 841.4875,761.2937 Q841.5859,761.25 841.7063,761.25 Q841.9359,761.25 842.1,761.4359 Q842.275,761.6109 842.275,761.8625 Q842.275,762.1031 842.0344,762.3875 Q841.6844,762.8031 841.1266,763.0328 Q840.3938,763.35 839.4969,763.35 Q838.4469,763.35 837.6047,762.9344 Q836.9266,762.6062 836.4453,761.8953 Q835.975,761.1844 835.975,760.3422 L835.975,759.5766 Q835.975,758.7016 836.3906,757.9359 Q836.8172,757.1703 837.55,756.7656 Q838.2937,756.35 839.125,756.35 Q839.6281,756.35 840.0656,756.525 Q840.5031,756.7 840.875,757.05 Z "/><text fill="#000000" font-family="sans-serif" font-size="8.4" lengthAdjust="spacingAndGlyphs" textLength="108.5" x="853.825" y="762.9371">ProportionalResultRenderer</text><line style="stroke: #A80036; stroke-width: 1.0499999999999998;" x1="785.4" x2="1008" y1="770.7" y2="770.7"/><line style="stroke: #A80036; stroke-width: 1.0499999999999998;" x1="785.4" x2="1008" y1="776.3" y2="776.3"/><ellipse cx="792.4" cy="784" fill="#84BE84" rx="2.1" ry="2.1" style="stroke: #038048; stroke-width: 0.7;"/><text fill="#000000" font-family="sans-serif" font-size="7.7" lengthAdjust="spacingAndGlyphs" textLength="205.8" x="798.7" y="787.0933">getCircleRadii(Map&lt;Country, Double&gt;):Map&lt;Country, Integer&gt;</text><!--MD5=[01d434bbba1c8659a73ff63ec174ed2c]
class InverseProportionalResultRenderer--><rect fill="#FEFECE" filter="url(#fgt9eqjctfphl)" height="43.2852" id="InverseProportionalResultRenderer" style="stroke: #A80036; stroke-width: 1.0499999999999998;" width="224" x="784.7" y="680.4"/><ellipse cx="825.475" cy="691.6" fill="#ADD1B2" rx="7.7" ry="7.7" style="stroke: #A80036; stroke-width: 0.7;"/><path d="M826.875,689.15 Q827.0172,688.8 827.1813,688.625 Q827.3453,688.45 827.5313,688.45 Q827.8594,688.45 828.0672,688.6469 Q828.275,688.8438 828.275,689.3031 L828.275,690.3969 Q828.275,690.8562 828.0781,691.0531 Q827.8812,691.25 827.575,691.25 Q827.3016,691.25 827.1266,691.1297 Q826.9516,691.0094 826.875,690.6922 Q826.8422,690.4734 826.7219,690.3531 Q826.5031,690.1234 826.1094,689.9922 Q825.7156,689.85 825.3219,689.85 Q824.8297,689.85 824.4141,690.0469 Q824.0094,690.2438 823.6922,690.6813 Q823.375,691.1188 823.375,691.7203 L823.375,692.3656 Q823.375,693.0875 823.9656,693.5687 Q824.5563,694.05 825.6062,694.05 Q826.2297,694.05 826.6672,693.9078 Q826.9187,693.8313 827.2031,693.5797 Q827.3891,693.4375 827.4875,693.3938 Q827.5859,693.35 827.7063,693.35 Q827.9359,693.35 828.1,693.5359 Q828.275,693.7109 828.275,693.9625 Q828.275,694.2031 828.0344,694.4875 Q827.6844,694.9031 827.1266,695.1328 Q826.3938,695.45 825.4969,695.45 Q824.4469,695.45 823.6047,695.0344 Q822.9266,694.7063 822.4453,693.9953 Q821.975,693.2844 821.975,692.4422 L821.975,691.6766 Q821.975,690.8016 822.3906,690.0359 Q822.8172,689.2703 823.55,688.8656 Q824.2937,688.45 825.125,688.45 Q825.6281,688.45 826.0656,688.625 Q826.5031,688.8 826.875,689.15 Z "/><text fill="#000000" font-family="sans-serif" font-size="8.4" lengthAdjust="spacingAndGlyphs" textLength="136.5" x="839.825" y="695.0371">InverseProportionalResultRenderer</text><line style="stroke: #A80036; stroke-width: 1.0499999999999998;" x1="785.4" x2="1008" y1="702.8" y2="702.8"/><line style="stroke: #A80036; stroke-width: 1.0499999999999998;" x1="785.4" x2="1008" y1="708.4" y2="708.4"/><ellipse cx="792.4" cy="716.1" fill="#84BE84" rx="2.1" ry="2.1" style="stroke: #038048; stroke-width: 0.7;"/><text fill="#000000" font-family="sans-serif" font-size="7.7" lengthAdjust="spacingAndGlyphs" textLength="205.8" x="798.7" y="719.1933">getCircleRadii(Map&lt;Country, Double&gt;):Map&lt;Country, Integer&gt;</text><!--MD5=[45f3850f728baf947cfa8b72293bdc4b]
class ResultRendererFactory--><rect fill="#FEFECE" filter="url(#fgt9eqjctfphl)" height="43.2852" id="ResultRendererFactory" style="stroke: #A80036; stroke-width: 1.0499999999999998;" width="168" x="426.3" y="685.3"/><ellipse cx="462.875" cy="696.5" fill="#ADD1B2" rx="7.7" ry="7.7" style="stroke: #A80036; stroke-width: 0.7;"/><path d="M464.275,694.05 Q464.4172,693.7 464.5812,693.525 Q464.7453,693.35 464.9313,693.35 Q465.2594,693.35 465.4672,693.5469 Q465.675,693.7438 465.675,694.2031 L465.675,695.2969 Q465.675,695.7562 465.4781,695.9531 Q465.2812,696.15 464.975,696.15 Q464.7016,696.15 464.5266,696.0297 Q464.3516,695.9094 464.275,695.5922 Q464.2422,695.3734 464.1219,695.2531 Q463.9031,695.0234 463.5094,694.8922 Q463.1156,694.75 462.7219,694.75 Q462.2297,694.75 461.8141,694.9469 Q461.4094,695.1438 461.0922,695.5813 Q460.775,696.0188 460.775,696.6203 L460.775,697.2656 Q460.775,697.9875 461.3656,698.4688 Q461.9562,698.95 463.0062,698.95 Q463.6297,698.95 464.0672,698.8078 Q464.3187,698.7312 464.6031,698.4797 Q464.7891,698.3375 464.8875,698.2937 Q464.9859,698.25 465.1063,698.25 Q465.3359,698.25 465.5,698.4359 Q465.675,698.6109 465.675,698.8625 Q465.675,699.1031 465.4344,699.3875 Q465.0844,699.8031 464.5266,700.0328 Q463.7938,700.35 462.8969,700.35 Q461.8469,700.35 461.0047,699.9344 Q460.3266,699.6062 459.8453,698.8953 Q459.375,698.1844 459.375,697.3422 L459.375,696.5766 Q459.375,695.7016 459.7906,694.9359 Q460.2172,694.1703 460.95,693.7656 Q461.6937,693.35 462.525,693.35 Q463.0281,693.35 463.4656,693.525 Q463.9031,693.7 464.275,694.05 Z "/><text fill="#000000" font-family="sans-serif" font-size="8.4" lengthAdjust="spacingAndGlyphs" textLength="88.9" x="477.225" y="699.9371">ResultRendererFactory</text><line style="stroke: #A80036; stroke-width: 1.0499999999999998;" x1="427" x2="593.6" y1="707.7" y2="707.7"/><line style="stroke: #A80036; stroke-width: 1.0499999999999998;" x1="427" x2="593.6" y1="713.3" y2="713.3"/><ellipse cx="434" cy="721" fill="#84BE84" rx="2.1" ry="2.1" style="stroke: #038048; stroke-width: 0.7;"/><text fill="#000000" font-family="sans-serif" font-size="7.7" lengthAdjust="spacingAndGlyphs" textLength="149.8" x="440.3" y="724.0933">getRenderer(AnalysisType):IResultRenderer</text><!--MD5=[268536d725c05ab0972bc9a56e860032]
class AnalysisType--><rect fill="#FEFECE" filter="url(#fgt9eqjctfphl)" height="72.3406" id="AnalysisType" style="stroke: #A80036; stroke-width: 1.0499999999999998;" width="134.4" x="42" y="516.25"/><ellipse cx="81.025" cy="527.45" fill="#EB937F" rx="7.7" ry="7.7" style="stroke: #A80036; stroke-width: 0.7;"/><path d="M79.975,528.15 L79.975,529.55 L82.775,529.55 L82.775,528.85 L82.775,528.5109 L83.2125,528.15 L83.475,528.15 L83.7375,528.15 L84.175,528.5109 L84.175,528.85 L84.175,530.95 L78.575,530.95 L78.2359,530.95 L77.875,530.5125 L77.875,530.25 L77.875,529.9875 L78.2359,529.55 L78.575,529.55 L78.575,529.55 L78.575,525.35 L78.575,525.35 L78.2359,525.35 L77.875,524.9125 L77.875,524.65 L77.875,524.3875 L78.2359,523.95 L78.575,523.95 L84.175,523.95 L84.175,526.05 L84.175,526.3891 L83.7375,526.75 L83.475,526.75 L83.2125,526.75 L82.775,526.3891 L82.775,526.05 L82.775,525.35 L79.975,525.35 L79.975,526.75 L80.675,526.75 L80.675,526.4109 L80.675,526.4109 L81.1125,526.05 L81.375,526.05 L81.6375,526.05 L82.075,526.4109 L82.075,526.75 L82.075,528.15 L82.075,528.4891 L81.6375,528.85 L81.6375,528.85 L81.375,528.85 L81.1125,528.85 L80.675,528.4891 L80.675,528.4891 L80.675,528.15 L79.975,528.15 Z "/><text fill="#000000" font-family="sans-serif" font-size="8.4" lengthAdjust="spacingAndGlyphs" textLength="50.4" x="95.375" y="530.8871">AnalysisType</text><line style="stroke: #A80036; stroke-width: 1.0499999999999998;" x1="42.7" x2="175.7" y1="538.65" y2="538.65"/><text fill="#000000" font-family="sans-serif" font-size="7.7" lengthAdjust="spacingAndGlyphs" textLength="52.5" x="46.2" y="549.4433">TOTAL_CASES</text><text fill="#000000" font-family="sans-serif" font-size="7.7" lengthAdjust="spacingAndGlyphs" textLength="72.1" x="46.2" y="559.1284">CASES_PER_CAPITA</text><text fill="#000000" font-family="sans-serif" font-size="7.7" lengthAdjust="spacingAndGlyphs" textLength="76.3" x="46.2" y="568.8136">DEATHS_PER_CAPITA</text><text fill="#000000" font-family="sans-serif" font-size="7.7" lengthAdjust="spacingAndGlyphs" textLength="126" x="46.2" y="578.4987">MAJORITY_CASE_SEX_PER_CAPITA</text><line style="stroke: #A80036; stroke-width: 1.0499999999999998;" x1="42.7" x2="175.7" y1="582.9906" y2="582.9906"/><!--MD5=[68c378d5cc422e7439ee8d4e12173460]
class AnalysisExecutor--><rect fill="#FEFECE" filter="url(#fgt9eqjctfphl)" height="120.7664" id="AnalysisExecutor" style="stroke: #A80036; stroke-width: 1.0499999999999998;" width="308" x="356.3" y="491.75"/><ellipse cx="474.775" cy="502.95" fill="#ADD1B2" rx="7.7" ry="7.7" style="stroke: #A80036; stroke-width: 0.7;"/><path d="M476.175,500.5 Q476.3172,500.15 476.4813,499.975 Q476.6453,499.8 476.8312,499.8 Q477.1594,499.8 477.3672,499.9969 Q477.575,500.1937 477.575,500.6531 L477.575,501.7469 Q477.575,502.2062 477.3781,502.4031 Q477.1813,502.6 476.875,502.6 Q476.6016,502.6 476.4266,502.4797 Q476.2516,502.3594 476.175,502.0422 Q476.1422,501.8234 476.0219,501.7031 Q475.8031,501.4734 475.4094,501.3422 Q475.0156,501.2 474.6219,501.2 Q474.1297,501.2 473.7141,501.3969 Q473.3094,501.5937 472.9922,502.0312 Q472.675,502.4687 472.675,503.0703 L472.675,503.7156 Q472.675,504.4375 473.2656,504.9188 Q473.8563,505.4 474.9062,505.4 Q475.5297,505.4 475.9672,505.2578 Q476.2187,505.1813 476.5031,504.9297 Q476.6891,504.7875 476.7875,504.7438 Q476.8859,504.7 477.0062,504.7 Q477.2359,504.7 477.4,504.8859 Q477.575,505.0609 477.575,505.3125 Q477.575,505.5531 477.3344,505.8375 Q476.9844,506.2531 476.4266,506.4828 Q475.6937,506.8 474.7969,506.8 Q473.7469,506.8 472.9047,506.3844 Q472.2266,506.0563 471.7453,505.3453 Q471.275,504.6344 471.275,503.7922 L471.275,503.0266 Q471.275,502.1516 471.6906,501.3859 Q472.1172,500.6203 472.85,500.2156 Q473.5937,499.8 474.425,499.8 Q474.9281,499.8 475.3656,499.975 Q475.8031,500.15 476.175,500.5 Z "/><text fill="#000000" font-family="sans-serif" font-size="8.4" lengthAdjust="spacingAndGlyphs" textLength="65.1" x="489.125" y="506.3871">AnalysisExecutor</text><line style="stroke: #A80036; stroke-width: 1.0499999999999998;" x1="357" x2="663.6" y1="514.15" y2="514.15"/><text fill="#000000" font-family="sans-serif" font-size="7.7" lengthAdjust="spacingAndGlyphs" textLength="289.8" x="370.3" y="524.9433">Contains its own list of countries in order to know if the CountryListBuilder's countries</text><text fill="#000000" font-family="sans-serif" font-size="7.7" lengthAdjust="spacingAndGlyphs" textLength="86.8" x="370.3" y="534.6284">are different from its own</text><rect fill="none" height="4.2" style="stroke: #C82930; stroke-width: 0.7;" width="4.2" x="361.9" y="539.1203"/><text fill="#000000" font-family="sans-serif" font-size="7.7" lengthAdjust="spacingAndGlyphs" textLength="93.1" x="370.3" y="544.3136">analysisType:AnalysisType</text><rect fill="none" height="4.2" style="stroke: #C82930; stroke-width: 0.7;" width="4.2" x="361.9" y="548.8055"/><text fill="#000000" font-family="sans-serif" font-size="7.7" lengthAdjust="spacingAndGlyphs" textLength="86.8" x="370.3" y="553.9987">countryList:List&lt;Country&gt;</text><line style="stroke: #A80036; stroke-width: 1.0499999999999998;" x1="357" x2="663.6" y1="558.4906" y2="558.4906"/><ellipse cx="364" cy="566.1906" fill="#84BE84" rx="2.1" ry="2.1" style="stroke: #038048; stroke-width: 0.7;"/><text fill="#000000" font-family="sans-serif" font-size="7.7" lengthAdjust="spacingAndGlyphs" textLength="46.2" x="370.3" y="569.2839">runAnalysis()</text><ellipse cx="364" cy="575.8758" fill="#84BE84" rx="2.1" ry="2.1" style="stroke: #038048; stroke-width: 0.7;"/><text fill="#000000" font-family="sans-serif" font-size="7.7" lengthAdjust="spacingAndGlyphs" textLength="108.5" x="370.3" y="578.969">setAnalysisType(AnalysisType)</text><ellipse cx="364" cy="585.5609" fill="#84BE84" rx="2.1" ry="2.1" style="stroke: #038048; stroke-width: 0.7;"/><text fill="#000000" font-family="sans-serif" font-size="7.7" lengthAdjust="spacingAndGlyphs" textLength="110.6" x="370.3" y="588.6542">getAnalysisType():AnalysisType</text><ellipse cx="364" cy="595.2461" fill="#84BE84" rx="2.1" ry="2.1" style="stroke: #038048; stroke-width: 0.7;"/><text fill="#000000" font-family="sans-serif" font-size="7.7" lengthAdjust="spacingAndGlyphs" textLength="115.5" x="370.3" y="598.3394">getResult():Map&lt;Country, Double&gt;</text><ellipse cx="364" cy="604.9313" fill="#84BE84" rx="2.1" ry="2.1" style="stroke: #038048; stroke-width: 0.7;"/><text fill="#000000" font-family="sans-serif" font-size="7.7" lengthAdjust="spacingAndGlyphs" textLength="68.6" x="370.3" y="608.0245">hasResult():Boolean</text><!--MD5=[fd46e1e43e7309fdc28edf5283150a31]
class LoginVerifier--><rect fill="#FEFECE" filter="url(#fgt9eqjctfphl)" height="43.2852" id="LoginVerifier" style="stroke: #A80036; stroke-width: 1.0499999999999998;" width="134.4" x="42" y="334.6"/><ellipse cx="82.075" cy="345.8" fill="#ADD1B2" rx="7.7" ry="7.7" style="stroke: #A80036; stroke-width: 0.7;"/><path d="M83.475,343.35 Q83.6172,343 83.7813,342.825 Q83.9453,342.65 84.1313,342.65 Q84.4594,342.65 84.6672,342.8469 Q84.875,343.0438 84.875,343.5031 L84.875,344.5969 Q84.875,345.0563 84.6781,345.2531 Q84.4812,345.45 84.175,345.45 Q83.9016,345.45 83.7266,345.3297 Q83.5516,345.2094 83.475,344.8922 Q83.4422,344.6734 83.3219,344.5531 Q83.1031,344.3234 82.7094,344.1922 Q82.3156,344.05 81.9219,344.05 Q81.4297,344.05 81.0141,344.2469 Q80.6094,344.4437 80.2922,344.8812 Q79.975,345.3187 79.975,345.9203 L79.975,346.5656 Q79.975,347.2875 80.5656,347.7687 Q81.1563,348.25 82.2063,348.25 Q82.8297,348.25 83.2672,348.1078 Q83.5188,348.0313 83.8031,347.7797 Q83.9891,347.6375 84.0875,347.5938 Q84.1859,347.55 84.3062,347.55 Q84.5359,347.55 84.7,347.7359 Q84.875,347.9109 84.875,348.1625 Q84.875,348.4031 84.6344,348.6875 Q84.2844,349.1031 83.7266,349.3328 Q82.9937,349.65 82.0969,349.65 Q81.0469,349.65 80.2047,349.2344 Q79.5266,348.9063 79.0453,348.1953 Q78.575,347.4844 78.575,346.6422 L78.575,345.8766 Q78.575,345.0016 78.9906,344.2359 Q79.4172,343.4703 80.15,343.0656 Q80.8938,342.65 81.725,342.65 Q82.2281,342.65 82.6656,342.825 Q83.1031,343 83.475,343.35 Z "/><text fill="#000000" font-family="sans-serif" font-size="8.4" lengthAdjust="spacingAndGlyphs" textLength="48.3" x="96.425" y="349.2371">LoginVerifier</text><line style="stroke: #A80036; stroke-width: 1.0499999999999998;" x1="42.7" x2="175.7" y1="357" y2="357"/><line style="stroke: #A80036; stroke-width: 1.0499999999999998;" x1="42.7" x2="175.7" y1="362.6" y2="362.6"/><ellipse cx="49.7" cy="370.3" fill="#84BE84" rx="2.1" ry="2.1" style="stroke: #038048; stroke-width: 0.7;"/><text fill="#000000" font-family="sans-serif" font-size="7.7" lengthAdjust="spacingAndGlyphs" textLength="116.2" x="56" y="373.3933">checkLogin(String, String):boolean</text><!--MD5=[deb4e1f6eb1e3c1256fdb830f96abfbb]
class Country--><rect fill="#FEFECE" filter="url(#fgt9eqjctfphl)" height="120.7664" id="Country" style="stroke: #A80036; stroke-width: 1.0499999999999998;" width="98.7" x="1832.95" y="233.45"/><ellipse cx="1864.625" cy="244.65" fill="#ADD1B2" rx="7.7" ry="7.7" style="stroke: #A80036; stroke-width: 0.7;"/><path d="M1866.025,242.2 Q1866.1672,241.85 1866.3313,241.675 Q1866.4953,241.5 1866.6812,241.5 Q1867.0094,241.5 1867.2172,241.6969 Q1867.425,241.8937 1867.425,242.3531 L1867.425,243.4469 Q1867.425,243.9062 1867.2281,244.1031 Q1867.0312,244.3 1866.725,244.3 Q1866.4516,244.3 1866.2766,244.1797 Q1866.1016,244.0594 1866.025,243.7422 Q1865.9922,243.5234 1865.8719,243.4031 Q1865.6531,243.1734 1865.2594,243.0422 Q1864.8656,242.9 1864.4719,242.9 Q1863.9797,242.9 1863.5641,243.0969 Q1863.1594,243.2938 1862.8422,243.7313 Q1862.525,244.1688 1862.525,244.7703 L1862.525,245.4156 Q1862.525,246.1375 1863.1156,246.6187 Q1863.7063,247.1 1864.7563,247.1 Q1865.3797,247.1 1865.8172,246.9578 Q1866.0688,246.8813 1866.3531,246.6297 Q1866.5391,246.4875 1866.6375,246.4438 Q1866.7359,246.4 1866.8562,246.4 Q1867.0859,246.4 1867.25,246.5859 Q1867.425,246.7609 1867.425,247.0125 Q1867.425,247.2531 1867.1844,247.5375 Q1866.8344,247.9531 1866.2766,248.1828 Q1865.5437,248.5 1864.6469,248.5 Q1863.5969,248.5 1862.7547,248.0844 Q1862.0766,247.7563 1861.5953,247.0453 Q1861.125,246.3344 1861.125,245.4922 L1861.125,244.7266 Q1861.125,243.8516 1861.5406,243.0859 Q1861.9672,242.3203 1862.7,241.9156 Q1863.4438,241.5 1864.275,241.5 Q1864.7781,241.5 1865.2156,241.675 Q1865.6531,241.85 1866.025,242.2 Z "/><text fill="#000000" font-family="sans-serif" font-size="8.4" lengthAdjust="spacingAndGlyphs" textLength="29.4" x="1878.975" y="248.0871">Country</text><line style="stroke: #A80036; stroke-width: 1.0499999999999998;" x1="1833.65" x2="1930.95" y1="255.85" y2="255.85"/><rect fill="none" height="4.2" style="stroke: #C82930; stroke-width: 0.7;" width="4.2" x="1838.55" y="261.45"/><text fill="#000000" font-family="sans-serif" font-size="7.7" lengthAdjust="spacingAndGlyphs" textLength="54.6" x="1846.95" y="266.6433">longName:String</text><rect fill="none" height="4.2" style="stroke: #C82930; stroke-width: 0.7;" width="4.2" x="1838.55" y="271.1352"/><text fill="#000000" font-family="sans-serif" font-size="7.7" lengthAdjust="spacingAndGlyphs" textLength="58.1" x="1846.95" y="276.3284">shortName:String</text><rect fill="none" height="4.2" style="stroke: #C82930; stroke-width: 0.7;" width="4.2" x="1838.55" y="280.8203"/><text fill="#000000" font-family="sans-serif" font-size="7.7" lengthAdjust="spacingAndGlyphs" textLength="49" x="1846.95" y="286.0136">latitude:Double</text><rect fill="none" height="4.2" style="stroke: #C82930; stroke-width: 0.7;" width="4.2" x="1838.55" y="290.5055"/><text fill="#000000" font-family="sans-serif" font-size="7.7" lengthAdjust="spacingAndGlyphs" textLength="55.3" x="1846.95" y="295.6987">longitude:Double</text><line style="stroke: #A80036; stroke-width: 1.0499999999999998;" x1="1833.65" x2="1930.95" y1="300.1906" y2="300.1906"/><ellipse cx="1840.65" cy="307.8906" fill="#84BE84" rx="2.1" ry="2.1" style="stroke: #038048; stroke-width: 0.7;"/><text fill="#000000" font-family="sans-serif" font-size="7.7" lengthAdjust="spacingAndGlyphs" textLength="73.5" x="1846.95" y="310.9839">getLongName():String</text><ellipse cx="1840.65" cy="317.5758" fill="#84BE84" rx="2.1" ry="2.1" style="stroke: #038048; stroke-width: 0.7;"/><text fill="#000000" font-family="sans-serif" font-size="7.7" lengthAdjust="spacingAndGlyphs" textLength="74.9" x="1846.95" y="320.669">getShortName():String</text><ellipse cx="1840.65" cy="327.2609" fill="#84BE84" rx="2.1" ry="2.1" style="stroke: #038048; stroke-width: 0.7;"/><text fill="#000000" font-family="sans-serif" font-size="7.7" lengthAdjust="spacingAndGlyphs" textLength="67.9" x="1846.95" y="330.3542">getLatitude():Double</text><ellipse cx="1840.65" cy="336.9461" fill="#84BE84" rx="2.1" ry="2.1" style="stroke: #038048; stroke-width: 0.7;"/><text fill="#000000" font-family="sans-serif" font-size="7.7" lengthAdjust="spacingAndGlyphs" textLength="74.2" x="1846.95" y="340.0394">getLongitude():Double</text><ellipse cx="1840.65" cy="346.6312" fill="#84BE84" rx="2.1" ry="2.1" style="stroke: #038048; stroke-width: 0.7;"/><text fill="#000000" font-family="sans-serif" font-size="7.7" lengthAdjust="spacingAndGlyphs" textLength="80.5" x="1846.95" y="349.7245">equals(Object): boolean</text><!--MD5=[4b2de983651dc20811fbebc8be20291e]
class IAPI--><rect fill="#FEFECE" filter="url(#fgt9eqjctfphl)" height="43.2852" id="IAPI" style="stroke: #A80036; stroke-width: 1.0499999999999998;" width="75.6" x="1844.5" y="379.4"/><ellipse cx="1871.38" cy="390.6" fill="#B4A7E5" rx="7.7" ry="7.7" style="stroke: #A80036; stroke-width: 0.7;"/><path d="M1872.08,388.5 L1872.08,392.7 L1873.48,392.7 L1873.8191,392.7 L1874.18,393.1375 L1874.18,393.4 L1874.18,393.6625 L1873.8191,394.1 L1873.48,394.1 L1869.28,394.1 L1868.9409,394.1 L1868.58,393.6625 L1868.58,393.4 L1868.58,393.1375 L1868.9409,392.7 L1869.28,392.7 L1870.68,392.7 L1870.68,388.5 L1869.28,388.5 L1868.9409,388.5 L1868.58,388.0625 L1868.58,387.8 L1868.58,387.5375 L1868.9409,387.1 L1869.28,387.1 L1873.48,387.1 L1873.8191,387.1 L1874.18,387.5375 L1874.18,387.8 L1874.18,388.0625 L1873.8191,388.5 L1873.48,388.5 L1872.08,388.5 Z "/><text fill="#000000" font-family="sans-serif" font-size="8.4" font-style="italic" lengthAdjust="spacingAndGlyphs" textLength="16.8" x="1884.82" y="394.0371">IAPI</text><line style="stroke: #A80036; stroke-width: 1.0499999999999998;" x1="1845.2" x2="1919.4" y1="401.8" y2="401.8"/><line style="stroke: #A80036; stroke-width: 1.0499999999999998;" x1="1845.2" x2="1919.4" y1="407.4" y2="407.4"/><text fill="#000000" font-family="sans-serif" font-size="7.7" lengthAdjust="spacingAndGlyphs" textLength="67.2" x="1848.7" y="418.1933">getDataURL():String</text><!--MD5=[5141a547d40b351f417eb685362cc250]
class APIInformationGetter--><rect fill="#FEFECE" filter="url(#fgt9eqjctfphl)" height="62.6555" id="APIInformationGetter" style="stroke: #A80036; stroke-width: 1.0499999999999998;" width="119.7" x="2259.6" y="262.5"/><ellipse cx="2277.345" cy="273.7" fill="#A9DCDF" rx="7.7" ry="7.7" style="stroke: #A80036; stroke-width: 0.7;"/><path d="M2278.57,274.75 L2276.2622,274.75 L2275.9559,275.45 L2275.9559,275.45 L2276.2841,275.45 L2276.645,275.8875 L2276.645,276.15 L2276.645,276.4125 L2276.2841,276.85 L2275.9559,276.85 L2274.6325,276.85 L2274.2059,276.85 L2273.845,276.4125 L2273.845,276.15 L2273.845,275.8875 L2274.2059,275.45 L2274.6325,275.45 L2276.2513,271.25 L2275.6387,271.25 L2274.9059,271.25 L2274.545,270.8125 L2274.545,270.55 L2274.545,270.2875 L2274.9059,269.85 L2275.6387,269.85 L2278.2091,269.85 L2280.0903,275.45 L2280.4841,275.45 L2280.4841,275.45 L2280.845,275.8875 L2280.845,276.15 L2280.845,276.4125 L2280.4841,276.85 L2280.0903,276.85 L2278.7669,276.85 L2278.4059,276.85 L2278.045,276.4125 L2278.045,276.15 L2278.045,275.8875 L2278.4059,275.45 L2278.7669,275.45 L2278.7669,275.45 L2278.57,274.75 Z M2278.1872,273.35 L2277.345,270.8453 L2276.6231,273.35 L2278.1872,273.35 Z "/><text fill="#000000" font-family="sans-serif" font-size="8.4" font-style="italic" lengthAdjust="spacingAndGlyphs" textLength="81.2" x="2288.755" y="277.1371">APIInformationGetter</text><line style="stroke: #A80036; stroke-width: 1.0499999999999998;" x1="2260.3" x2="2378.6" y1="284.9" y2="284.9"/><polygon fill="none" points="2267.3,289.1,2270.1,291.9,2267.3,294.7,2264.5,291.9" style="stroke: #B38D22; stroke-width: 0.7;"/><text fill="#000000" font-family="sans-serif" font-size="7.7" lengthAdjust="spacingAndGlyphs" textLength="72.8" x="2273.6" y="295.6933">targets:List&lt;Country&gt;</text><line style="stroke: #A80036; stroke-width: 1.0499999999999998;" x1="2260.3" x2="2378.6" y1="300.1852" y2="300.1852"/><ellipse cx="2267.3" cy="307.8852" fill="#84BE84" rx="2.1" ry="2.1" style="stroke: #038048; stroke-width: 0.7;"/><text fill="#000000" font-family="sans-serif" font-size="7.7" lengthAdjust="spacingAndGlyphs" textLength="101.5" x="2273.6" y="310.9784">APIInformationGetter(Country)</text><polygon fill="#FFFF44" points="2267.3,314.0703,2270.1,316.8703,2267.3,319.6703,2264.5,316.8703" style="stroke: #B38D22; stroke-width: 0.7;"/><text fill="#000000" font-family="sans-serif" font-size="7.7" lengthAdjust="spacingAndGlyphs" textLength="53.2" x="2273.6" y="320.6636">getData():String</text><!--MD5=[6cc33c64cb4033f1c916556986525662]
class CountryPopulationAPIGetter--><rect fill="#FEFECE" filter="url(#fgt9eqjctfphl)" height="72.3406" id="CountryPopulationAPIGetter" style="stroke: #A80036; stroke-width: 1.0499999999999998;" width="155.4" x="2473.8" y="218.75"/><ellipse cx="2496.27" cy="229.95" fill="#ADD1B2" rx="7.7" ry="7.7" style="stroke: #A80036; stroke-width: 0.7;"/><path d="M2497.67,227.5 Q2497.8122,227.15 2497.9762,226.975 Q2498.1403,226.8 2498.3262,226.8 Q2498.6544,226.8 2498.8622,226.9969 Q2499.07,227.1938 2499.07,227.6531 L2499.07,228.7469 Q2499.07,229.2062 2498.8731,229.4031 Q2498.6763,229.6 2498.37,229.6 Q2498.0966,229.6 2497.9216,229.4797 Q2497.7466,229.3594 2497.67,229.0422 Q2497.6372,228.8234 2497.5169,228.7031 Q2497.2981,228.4734 2496.9044,228.3422 Q2496.5106,228.2 2496.1169,228.2 Q2495.6247,228.2 2495.2091,228.3969 Q2494.8044,228.5937 2494.4872,229.0312 Q2494.17,229.4687 2494.17,230.0703 L2494.17,230.7156 Q2494.17,231.4375 2494.7606,231.9188 Q2495.3512,232.4 2496.4013,232.4 Q2497.0247,232.4 2497.4622,232.2578 Q2497.7138,232.1812 2497.9981,231.9297 Q2498.1841,231.7875 2498.2825,231.7437 Q2498.3809,231.7 2498.5013,231.7 Q2498.7309,231.7 2498.895,231.8859 Q2499.07,232.0609 2499.07,232.3125 Q2499.07,232.5531 2498.8294,232.8375 Q2498.4794,233.2531 2497.9216,233.4828 Q2497.1888,233.8 2496.2919,233.8 Q2495.2419,233.8 2494.3997,233.3844 Q2493.7216,233.0562 2493.2403,232.3453 Q2492.77,231.6344 2492.77,230.7922 L2492.77,230.0266 Q2492.77,229.1516 2493.1856,228.3859 Q2493.6122,227.6203 2494.345,227.2156 Q2495.0888,226.8 2495.92,226.8 Q2496.4231,226.8 2496.8606,226.975 Q2497.2981,227.15 2497.67,227.5 Z "/><text fill="#000000" font-family="sans-serif" font-size="8.4" lengthAdjust="spacingAndGlyphs" textLength="106.4" x="2508.73" y="233.3871">CountryPopulationAPIGetter</text><line style="stroke: #A80036; stroke-width: 1.0499999999999998;" x1="2474.5" x2="2628.5" y1="241.15" y2="241.15"/><line style="stroke: #A80036; stroke-width: 1.0499999999999998;" x1="2474.5" x2="2628.5" y1="246.75" y2="246.75"/><ellipse cx="2481.5" cy="254.45" fill="#84BE84" rx="2.1" ry="2.1" style="stroke: #038048; stroke-width: 0.7;"/><text fill="#000000" font-family="sans-serif" font-size="7.7" lengthAdjust="spacingAndGlyphs" textLength="113.4" x="2487.8" y="257.5433">getPopulation():Map&lt;Country, int&gt;</text><ellipse cx="2481.5" cy="264.1352" fill="#84BE84" rx="2.1" ry="2.1" style="stroke: #038048; stroke-width: 0.7;"/><text fill="#000000" font-family="sans-serif" font-size="7.7" lengthAdjust="spacingAndGlyphs" textLength="128.8" x="2487.8" y="267.2284">getMalePopulation():Map&lt;Country, int&gt;</text><ellipse cx="2481.5" cy="273.8203" fill="#84BE84" rx="2.1" ry="2.1" style="stroke: #038048; stroke-width: 0.7;"/><text fill="#000000" font-family="sans-serif" font-size="7.7" lengthAdjust="spacingAndGlyphs" textLength="137.2" x="2487.8" y="276.9136">getFemalePopulation():Map&lt;Country, int&gt;</text><rect fill="#F24D5C" height="4.2" style="stroke: #C82930; stroke-width: 0.7;" width="4.2" x="2479.4" y="281.4055"/><text fill="#000000" font-family="sans-serif" font-size="7.7" lengthAdjust="spacingAndGlyphs" textLength="69.3" x="2487.8" y="286.5987">getDataURL(): String</text><!--MD5=[567f0406b11cf500253af915ee1dc468]
class CountryCaseAPIGetter--><rect fill="#FEFECE" filter="url(#fgt9eqjctfphl)" height="72.3406" id="CountryCaseAPIGetter" style="stroke: #A80036; stroke-width: 1.0499999999999998;" width="142.8" x="2480.1" y="489.65"/><ellipse cx="2506.035" cy="500.85" fill="#ADD1B2" rx="7.7" ry="7.7" style="stroke: #A80036; stroke-width: 0.7;"/><path d="M2507.435,498.4 Q2507.5772,498.05 2507.7413,497.875 Q2507.9053,497.7 2508.0913,497.7 Q2508.4194,497.7 2508.6272,497.8969 Q2508.835,498.0937 2508.835,498.5531 L2508.835,499.6469 Q2508.835,500.1063 2508.6381,500.3031 Q2508.4413,500.5 2508.135,500.5 Q2507.8616,500.5 2507.6866,500.3797 Q2507.5116,500.2594 2507.435,499.9422 Q2507.4022,499.7234 2507.2819,499.6031 Q2507.0631,499.3734 2506.6694,499.2422 Q2506.2756,499.1 2505.8819,499.1 Q2505.3897,499.1 2504.9741,499.2969 Q2504.5694,499.4938 2504.2522,499.9313 Q2503.935,500.3688 2503.935,500.9703 L2503.935,501.6156 Q2503.935,502.3375 2504.5256,502.8187 Q2505.1163,503.3 2506.1662,503.3 Q2506.7897,503.3 2507.2272,503.1578 Q2507.4787,503.0812 2507.7631,502.8297 Q2507.9491,502.6875 2508.0475,502.6437 Q2508.1459,502.6 2508.2663,502.6 Q2508.4959,502.6 2508.66,502.7859 Q2508.835,502.9609 2508.835,503.2125 Q2508.835,503.4531 2508.5944,503.7375 Q2508.2444,504.1531 2507.6866,504.3828 Q2506.9538,504.7 2506.0569,504.7 Q2505.0069,504.7 2504.1647,504.2844 Q2503.4866,503.9562 2503.0053,503.2453 Q2502.535,502.5344 2502.535,501.6922 L2502.535,500.9266 Q2502.535,500.0516 2502.9506,499.2859 Q2503.3772,498.5203 2504.11,498.1156 Q2504.8537,497.7 2505.685,497.7 Q2506.1881,497.7 2506.6256,497.875 Q2507.0631,498.05 2507.435,498.4 Z "/><text fill="#000000" font-family="sans-serif" font-size="8.4" lengthAdjust="spacingAndGlyphs" textLength="86.1" x="2519.265" y="504.2871">CountryCaseAPIGetter</text><line style="stroke: #A80036; stroke-width: 1.0499999999999998;" x1="2480.8" x2="2622.2" y1="512.05" y2="512.05"/><line style="stroke: #A80036; stroke-width: 1.0499999999999998;" x1="2480.8" x2="2622.2" y1="517.65" y2="517.65"/><ellipse cx="2487.8" cy="525.35" fill="#84BE84" rx="2.1" ry="2.1" style="stroke: #038048; stroke-width: 0.7;"/><text fill="#000000" font-family="sans-serif" font-size="7.7" lengthAdjust="spacingAndGlyphs" textLength="116.2" x="2494.1" y="528.4433">getMaleCases():Map&lt;Country, int&gt;</text><ellipse cx="2487.8" cy="535.0352" fill="#84BE84" rx="2.1" ry="2.1" style="stroke: #038048; stroke-width: 0.7;"/><text fill="#000000" font-family="sans-serif" font-size="7.7" lengthAdjust="spacingAndGlyphs" textLength="124.6" x="2494.1" y="538.1284">getFemaleCases():Map&lt;Country, int&gt;</text><ellipse cx="2487.8" cy="544.7203" fill="#84BE84" rx="2.1" ry="2.1" style="stroke: #038048; stroke-width: 0.7;"/><text fill="#000000" font-family="sans-serif" font-size="7.7" lengthAdjust="spacingAndGlyphs" textLength="98.7" x="2494.1" y="547.8136">getCases():Map&lt;Country:int&gt;</text><rect fill="#F24D5C" height="4.2" style="stroke: #C82930; stroke-width: 0.7;" width="4.2" x="2485.7" y="552.3055"/><text fill="#000000" font-family="sans-serif" font-size="7.7" lengthAdjust="spacingAndGlyphs" textLength="69.3" x="2494.1" y="557.4987">getDataURL(): String</text><!--MD5=[7363c16abe880e91ffbd9bdeabd57389]
class CountryDeathAPIGetter--><rect fill="#FEFECE" filter="url(#fgt9eqjctfphl)" height="72.3406" id="CountryDeathAPIGetter" style="stroke: #A80036; stroke-width: 1.0499999999999998;" width="144.9" x="2479.05" y="106.05"/><ellipse cx="2504.985" cy="117.25" fill="#ADD1B2" rx="7.7" ry="7.7" style="stroke: #A80036; stroke-width: 0.7;"/><path d="M2506.385,114.8 Q2506.5272,114.45 2506.6913,114.275 Q2506.8553,114.1 2507.0412,114.1 Q2507.3694,114.1 2507.5772,114.2969 Q2507.785,114.4937 2507.785,114.9531 L2507.785,116.0469 Q2507.785,116.5063 2507.5881,116.7031 Q2507.3913,116.9 2507.085,116.9 Q2506.8116,116.9 2506.6366,116.7797 Q2506.4616,116.6594 2506.385,116.3422 Q2506.3522,116.1234 2506.2319,116.0031 Q2506.0131,115.7734 2505.6194,115.6422 Q2505.2256,115.5 2504.8319,115.5 Q2504.3397,115.5 2503.9241,115.6969 Q2503.5194,115.8938 2503.2022,116.3313 Q2502.885,116.7688 2502.885,117.3703 L2502.885,118.0156 Q2502.885,118.7375 2503.4756,119.2187 Q2504.0663,119.7 2505.1163,119.7 Q2505.7397,119.7 2506.1772,119.5578 Q2506.4288,119.4812 2506.7131,119.2297 Q2506.8991,119.0875 2506.9975,119.0437 Q2507.0959,119 2507.2163,119 Q2507.4459,119 2507.61,119.1859 Q2507.785,119.3609 2507.785,119.6125 Q2507.785,119.8531 2507.5444,120.1375 Q2507.1944,120.5531 2506.6366,120.7828 Q2505.9038,121.1 2505.0069,121.1 Q2503.9569,121.1 2503.1147,120.6844 Q2502.4366,120.3562 2501.9553,119.6453 Q2501.485,118.9344 2501.485,118.0922 L2501.485,117.3266 Q2501.485,116.4516 2501.9006,115.6859 Q2502.3272,114.9203 2503.06,114.5156 Q2503.8038,114.1 2504.635,114.1 Q2505.1381,114.1 2505.5756,114.275 Q2506.0131,114.45 2506.385,114.8 Z "/><text fill="#000000" font-family="sans-serif" font-size="8.4" lengthAdjust="spacingAndGlyphs" textLength="88.2" x="2518.215" y="120.6871">CountryDeathAPIGetter</text><line style="stroke: #A80036; stroke-width: 1.0499999999999998;" x1="2479.75" x2="2623.25" y1="128.45" y2="128.45"/><line style="stroke: #A80036; stroke-width: 1.0499999999999998;" x1="2479.75" x2="2623.25" y1="134.05" y2="134.05"/><ellipse cx="2486.75" cy="141.75" fill="#84BE84" rx="2.1" ry="2.1" style="stroke: #038048; stroke-width: 0.7;"/><text fill="#000000" font-family="sans-serif" font-size="7.7" lengthAdjust="spacingAndGlyphs" textLength="118.3" x="2493.05" y="144.8433">getMaleDeaths():Map&lt;Country, int&gt;</text><ellipse cx="2486.75" cy="151.4352" fill="#84BE84" rx="2.1" ry="2.1" style="stroke: #038048; stroke-width: 0.7;"/><text fill="#000000" font-family="sans-serif" font-size="7.7" lengthAdjust="spacingAndGlyphs" textLength="126.7" x="2493.05" y="154.5284">getFemaleDeaths():Map&lt;Country, int&gt;</text><ellipse cx="2486.75" cy="161.1203" fill="#84BE84" rx="2.1" ry="2.1" style="stroke: #038048; stroke-width: 0.7;"/><text fill="#000000" font-family="sans-serif" font-size="7.7" lengthAdjust="spacingAndGlyphs" textLength="100.8" x="2493.05" y="164.2136">getDeaths():Map&lt;Country:int&gt;</text><rect fill="#F24D5C" height="4.2" style="stroke: #C82930; stroke-width: 0.7;" width="4.2" x="2484.65" y="168.7055"/><text fill="#000000" font-family="sans-serif" font-size="7.7" lengthAdjust="spacingAndGlyphs" textLength="69.3" x="2493.05" y="173.8987">getDataURL(): String</text><!--MD5=[c3c9cf8fa9580f2e4b46ae7c6a0ed80e]
class IAnalysis--><rect fill="#FEFECE" filter="url(#fgt9eqjctfphl)" height="43.2852" id="IAnalysis" style="stroke: #A80036; stroke-width: 1.0499999999999998;" width="128.8" x="1400.7" y="379.4"/><ellipse cx="1444.625" cy="390.6" fill="#B4A7E5" rx="7.7" ry="7.7" style="stroke: #A80036; stroke-width: 0.7;"/><path d="M1445.325,388.5 L1445.325,392.7 L1446.725,392.7 L1447.0641,392.7 L1447.425,393.1375 L1447.425,393.4 L1447.425,393.6625 L1447.0641,394.1 L1446.725,394.1 L1442.525,394.1 L1442.1859,394.1 L1441.825,393.6625 L1441.825,393.4 L1441.825,393.1375 L1442.1859,392.7 L1442.525,392.7 L1443.925,392.7 L1443.925,388.5 L1442.525,388.5 L1442.1859,388.5 L1441.825,388.0625 L1441.825,387.8 L1441.825,387.5375 L1442.1859,387.1 L1442.525,387.1 L1446.725,387.1 L1447.0641,387.1 L1447.425,387.5375 L1447.425,387.8 L1447.425,388.0625 L1447.0641,388.5 L1446.725,388.5 L1445.325,388.5 Z "/><text fill="#000000" font-family="sans-serif" font-size="8.4" font-style="italic" lengthAdjust="spacingAndGlyphs" textLength="35" x="1458.975" y="394.0371">IAnalysis</text><line style="stroke: #A80036; stroke-width: 1.0499999999999998;" x1="1401.4" x2="1528.8" y1="401.8" y2="401.8"/><line style="stroke: #A80036; stroke-width: 1.0499999999999998;" x1="1401.4" x2="1528.8" y1="407.4" y2="407.4"/><ellipse cx="1408.4" cy="415.1" fill="#84BE84" rx="2.1" ry="2.1" style="stroke: #038048; stroke-width: 0.7;"/><text fill="#000000" font-family="sans-serif" font-size="7.7" lengthAdjust="spacingAndGlyphs" textLength="110.6" x="1414.7" y="418.1933">analyze():Map&lt;Country, Double&gt;</text><!--MD5=[7740047ee7ec51c4da68dd56fcb82a04]
class TotalCaseAnalysis--><rect fill="#FEFECE" filter="url(#fgt9eqjctfphl)" height="43.2852" id="TotalCaseAnalysis" style="stroke: #A80036; stroke-width: 1.0499999999999998;" width="128.8" x="1155" y="600.6"/><ellipse cx="1180.935" cy="611.8" fill="#ADD1B2" rx="7.7" ry="7.7" style="stroke: #A80036; stroke-width: 0.7;"/><path d="M1182.335,609.35 Q1182.4772,609 1182.6413,608.825 Q1182.8053,608.65 1182.9912,608.65 Q1183.3194,608.65 1183.5272,608.8469 Q1183.735,609.0437 1183.735,609.5031 L1183.735,610.5969 Q1183.735,611.0563 1183.5381,611.2531 Q1183.3413,611.45 1183.035,611.45 Q1182.7616,611.45 1182.5866,611.3297 Q1182.4116,611.2094 1182.335,610.8922 Q1182.3022,610.6734 1182.1819,610.5531 Q1181.9631,610.3234 1181.5694,610.1922 Q1181.1756,610.05 1180.7819,610.05 Q1180.2897,610.05 1179.8741,610.2469 Q1179.4694,610.4437 1179.1522,610.8812 Q1178.835,611.3187 1178.835,611.9203 L1178.835,612.5656 Q1178.835,613.2875 1179.4256,613.7688 Q1180.0163,614.25 1181.0662,614.25 Q1181.6897,614.25 1182.1272,614.1078 Q1182.3787,614.0313 1182.6631,613.7797 Q1182.8491,613.6375 1182.9475,613.5938 Q1183.0459,613.55 1183.1663,613.55 Q1183.3959,613.55 1183.56,613.7359 Q1183.735,613.9109 1183.735,614.1625 Q1183.735,614.4031 1183.4944,614.6875 Q1183.1444,615.1031 1182.5866,615.3328 Q1181.8538,615.65 1180.9569,615.65 Q1179.9069,615.65 1179.0647,615.2344 Q1178.3866,614.9063 1177.9053,614.1953 Q1177.435,613.4844 1177.435,612.6422 L1177.435,611.8766 Q1177.435,611.0016 1177.8506,610.2359 Q1178.2772,609.4703 1179.01,609.0656 Q1179.7537,608.65 1180.585,608.65 Q1181.0881,608.65 1181.5256,608.825 Q1181.9631,609 1182.335,609.35 Z "/><text fill="#000000" font-family="sans-serif" font-size="8.4" lengthAdjust="spacingAndGlyphs" textLength="72.1" x="1194.165" y="615.2371">TotalCaseAnalysis</text><line style="stroke: #A80036; stroke-width: 1.0499999999999998;" x1="1155.7" x2="1283.1" y1="623" y2="623"/><line style="stroke: #A80036; stroke-width: 1.0499999999999998;" x1="1155.7" x2="1283.1" y1="628.6" y2="628.6"/><ellipse cx="1162.7" cy="636.3" fill="#84BE84" rx="2.1" ry="2.1" style="stroke: #038048; stroke-width: 0.7;"/><text fill="#000000" font-family="sans-serif" font-size="7.7" lengthAdjust="spacingAndGlyphs" textLength="110.6" x="1169" y="639.3933">analyze():Map&lt;Country, Double&gt;</text><!--MD5=[f96e9cf2d17f62f6a5fafb084a432db9]
class CasesPerCapitaAnalysis--><rect fill="#FEFECE" filter="url(#fgt9eqjctfphl)" height="43.2852" id="CasesPerCapitaAnalysis" style="stroke: #A80036; stroke-width: 1.0499999999999998;" width="128.8" x="1155" y="490"/><ellipse cx="1169.91" cy="501.2" fill="#ADD1B2" rx="7.7" ry="7.7" style="stroke: #A80036; stroke-width: 0.7;"/><path d="M1171.31,498.75 Q1171.4522,498.4 1171.6162,498.225 Q1171.7803,498.05 1171.9663,498.05 Q1172.2944,498.05 1172.5022,498.2469 Q1172.71,498.4437 1172.71,498.9031 L1172.71,499.9969 Q1172.71,500.4562 1172.5131,500.6531 Q1172.3162,500.85 1172.01,500.85 Q1171.7366,500.85 1171.5616,500.7297 Q1171.3866,500.6094 1171.31,500.2922 Q1171.2772,500.0734 1171.1569,499.9531 Q1170.9381,499.7234 1170.5444,499.5922 Q1170.1506,499.45 1169.7569,499.45 Q1169.2647,499.45 1168.8491,499.6469 Q1168.4444,499.8437 1168.1272,500.2812 Q1167.81,500.7187 1167.81,501.3203 L1167.81,501.9656 Q1167.81,502.6875 1168.4006,503.1688 Q1168.9912,503.65 1170.0413,503.65 Q1170.6647,503.65 1171.1022,503.5078 Q1171.3538,503.4313 1171.6381,503.1797 Q1171.8241,503.0375 1171.9225,502.9938 Q1172.0209,502.95 1172.1413,502.95 Q1172.3709,502.95 1172.535,503.1359 Q1172.71,503.3109 1172.71,503.5625 Q1172.71,503.8031 1172.4694,504.0875 Q1172.1194,504.5031 1171.5616,504.7328 Q1170.8288,505.05 1169.9319,505.05 Q1168.8819,505.05 1168.0397,504.6344 Q1167.3616,504.3063 1166.8803,503.5953 Q1166.41,502.8844 1166.41,502.0422 L1166.41,501.2766 Q1166.41,500.4016 1166.8256,499.6359 Q1167.2522,498.8703 1167.985,498.4656 Q1168.7288,498.05 1169.56,498.05 Q1170.0631,498.05 1170.5006,498.225 Q1170.9381,498.4 1171.31,498.75 Z "/><text fill="#000000" font-family="sans-serif" font-size="8.4" lengthAdjust="spacingAndGlyphs" textLength="96.6" x="1180.69" y="504.6371">CasesPerCapitaAnalysis</text><line style="stroke: #A80036; stroke-width: 1.0499999999999998;" x1="1155.7" x2="1283.1" y1="512.4" y2="512.4"/><line style="stroke: #A80036; stroke-width: 1.0499999999999998;" x1="1155.7" x2="1283.1" y1="518" y2="518"/><ellipse cx="1162.7" cy="525.7" fill="#84BE84" rx="2.1" ry="2.1" style="stroke: #038048; stroke-width: 0.7;"/><text fill="#000000" font-family="sans-serif" font-size="7.7" lengthAdjust="spacingAndGlyphs" textLength="110.6" x="1169" y="528.7933">analyze():Map&lt;Country, Double&gt;</text><!--MD5=[936f99b98f0a22824e8cae4f2e9478e3]
class DeathsPerCapitaAnalysis--><rect fill="#FEFECE" filter="url(#fgt9eqjctfphl)" height="43.2852" id="DeathsPerCapitaAnalysis" style="stroke: #A80036; stroke-width: 1.0499999999999998;" width="128.8" x="1155" y="137.2"/><ellipse cx="1168.965" cy="148.4" fill="#ADD1B2" rx="7.7" ry="7.7" style="stroke: #A80036; stroke-width: 0.7;"/><path d="M1170.365,145.95 Q1170.5072,145.6 1170.6712,145.425 Q1170.8353,145.25 1171.0213,145.25 Q1171.3494,145.25 1171.5572,145.4469 Q1171.765,145.6437 1171.765,146.1031 L1171.765,147.1969 Q1171.765,147.6563 1171.5681,147.8531 Q1171.3713,148.05 1171.065,148.05 Q1170.7916,148.05 1170.6166,147.9297 Q1170.4416,147.8094 1170.365,147.4922 Q1170.3322,147.2734 1170.2119,147.1531 Q1169.9931,146.9234 1169.5994,146.7922 Q1169.2056,146.65 1168.8119,146.65 Q1168.3197,146.65 1167.9041,146.8469 Q1167.4994,147.0438 1167.1822,147.4813 Q1166.865,147.9188 1166.865,148.5203 L1166.865,149.1656 Q1166.865,149.8875 1167.4556,150.3687 Q1168.0462,150.85 1169.0963,150.85 Q1169.7197,150.85 1170.1572,150.7078 Q1170.4088,150.6313 1170.6931,150.3797 Q1170.8791,150.2375 1170.9775,150.1938 Q1171.0759,150.15 1171.1963,150.15 Q1171.4259,150.15 1171.59,150.3359 Q1171.765,150.5109 1171.765,150.7625 Q1171.765,151.0031 1171.5244,151.2875 Q1171.1744,151.7031 1170.6166,151.9328 Q1169.8838,152.25 1168.9869,152.25 Q1167.9369,152.25 1167.0947,151.8344 Q1166.4166,151.5063 1165.9353,150.7953 Q1165.465,150.0844 1165.465,149.2422 L1165.465,148.4766 Q1165.465,147.6016 1165.8806,146.8359 Q1166.3072,146.0703 1167.04,145.6656 Q1167.7838,145.25 1168.615,145.25 Q1169.1181,145.25 1169.5556,145.425 Q1169.9931,145.6 1170.365,145.95 Z "/><text fill="#000000" font-family="sans-serif" font-size="8.4" lengthAdjust="spacingAndGlyphs" textLength="98.7" x="1179.535" y="151.8371">DeathsPerCapitaAnalysis</text><line style="stroke: #A80036; stroke-width: 1.0499999999999998;" x1="1155.7" x2="1283.1" y1="159.6" y2="159.6"/><line style="stroke: #A80036; stroke-width: 1.0499999999999998;" x1="1155.7" x2="1283.1" y1="165.2" y2="165.2"/><ellipse cx="1162.7" cy="172.9" fill="#84BE84" rx="2.1" ry="2.1" style="stroke: #038048; stroke-width: 0.7;"/><text fill="#000000" font-family="sans-serif" font-size="7.7" lengthAdjust="spacingAndGlyphs" textLength="110.6" x="1169" y="175.9933">analyze():Map&lt;Country, Double&gt;</text><!--MD5=[cfce5eceaef906151c7cdcfb5b7822d1]
class MajorityCaseSexPerCapitaAnalysis--><rect fill="#FEFECE" filter="url(#fgt9eqjctfphl)" height="43.2852" id="MajorityCaseSexPerCapitaAnalysis" style="stroke: #A80036; stroke-width: 1.0499999999999998;" width="156.8" x="1141" y="379.4"/><ellipse cx="1151.5" cy="390.6" fill="#ADD1B2" rx="7.7" ry="7.7" style="stroke: #A80036; stroke-width: 0.7;"/><path d="M1152.9,388.15 Q1153.0422,387.8 1153.2063,387.625 Q1153.3703,387.45 1153.5562,387.45 Q1153.8844,387.45 1154.0922,387.6469 Q1154.3,387.8438 1154.3,388.3031 L1154.3,389.3969 Q1154.3,389.8563 1154.1031,390.0531 Q1153.9063,390.25 1153.6,390.25 Q1153.3266,390.25 1153.1516,390.1297 Q1152.9766,390.0094 1152.9,389.6922 Q1152.8672,389.4734 1152.7469,389.3531 Q1152.5281,389.1234 1152.1344,388.9922 Q1151.7406,388.85 1151.3469,388.85 Q1150.8547,388.85 1150.4391,389.0469 Q1150.0344,389.2438 1149.7172,389.6813 Q1149.4,390.1188 1149.4,390.7203 L1149.4,391.3656 Q1149.4,392.0875 1149.9906,392.5687 Q1150.5813,393.05 1151.6313,393.05 Q1152.2547,393.05 1152.6922,392.9078 Q1152.9438,392.8312 1153.2281,392.5797 Q1153.4141,392.4375 1153.5125,392.3937 Q1153.6109,392.35 1153.7312,392.35 Q1153.9609,392.35 1154.125,392.5359 Q1154.3,392.7109 1154.3,392.9625 Q1154.3,393.2031 1154.0594,393.4875 Q1153.7094,393.9031 1153.1516,394.1328 Q1152.4187,394.45 1151.5219,394.45 Q1150.4719,394.45 1149.6297,394.0344 Q1148.9516,393.7062 1148.4703,392.9953 Q1148,392.2844 1148,391.4422 L1148,390.6766 Q1148,389.8016 1148.4156,389.0359 Q1148.8422,388.2703 1149.575,387.8656 Q1150.3188,387.45 1151.15,387.45 Q1151.6531,387.45 1152.0906,387.625 Q1152.5281,387.8 1152.9,388.15 Z "/><text fill="#000000" font-family="sans-serif" font-size="8.4" lengthAdjust="spacingAndGlyphs" textLength="134.4" x="1161.3" y="394.0371">MajorityCaseSexPerCapitaAnalysis</text><line style="stroke: #A80036; stroke-width: 1.0499999999999998;" x1="1141.7" x2="1297.1" y1="401.8" y2="401.8"/><line style="stroke: #A80036; stroke-width: 1.0499999999999998;" x1="1141.7" x2="1297.1" y1="407.4" y2="407.4"/><ellipse cx="1148.7" cy="415.1" fill="#84BE84" rx="2.1" ry="2.1" style="stroke: #038048; stroke-width: 0.7;"/><text fill="#000000" font-family="sans-serif" font-size="7.7" lengthAdjust="spacingAndGlyphs" textLength="110.6" x="1155" y="418.1933">analyze():Map&lt;Country, Double&gt;</text><!--MD5=[dcfff3225792bc9e46054f36b5bf5323]
class AnalysisFactory--><rect fill="#FEFECE" filter="url(#fgt9eqjctfphl)" height="43.2852" id="AnalysisFactory" style="stroke: #A80036; stroke-width: 1.0499999999999998;" width="158.9" x="817.25" y="490"/><ellipse cx="863.975" cy="501.2" fill="#ADD1B2" rx="7.7" ry="7.7" style="stroke: #A80036; stroke-width: 0.7;"/><path d="M865.375,498.75 Q865.5172,498.4 865.6813,498.225 Q865.8453,498.05 866.0313,498.05 Q866.3594,498.05 866.5672,498.2469 Q866.775,498.4437 866.775,498.9031 L866.775,499.9969 Q866.775,500.4562 866.5781,500.6531 Q866.3812,500.85 866.075,500.85 Q865.8016,500.85 865.6266,500.7297 Q865.4516,500.6094 865.375,500.2922 Q865.3422,500.0734 865.2219,499.9531 Q865.0031,499.7234 864.6094,499.5922 Q864.2156,499.45 863.8219,499.45 Q863.3297,499.45 862.9141,499.6469 Q862.5094,499.8437 862.1922,500.2812 Q861.875,500.7187 861.875,501.3203 L861.875,501.9656 Q861.875,502.6875 862.4656,503.1688 Q863.0563,503.65 864.1062,503.65 Q864.7297,503.65 865.1672,503.5078 Q865.4187,503.4313 865.7031,503.1797 Q865.8891,503.0375 865.9875,502.9938 Q866.0859,502.95 866.2063,502.95 Q866.4359,502.95 866.6,503.1359 Q866.775,503.3109 866.775,503.5625 Q866.775,503.8031 866.5344,504.0875 Q866.1844,504.5031 865.6266,504.7328 Q864.8938,505.05 863.9969,505.05 Q862.9469,505.05 862.1047,504.6344 Q861.4266,504.3063 860.9453,503.5953 Q860.475,502.8844 860.475,502.0422 L860.475,501.2766 Q860.475,500.4016 860.8906,499.6359 Q861.3172,498.8703 862.05,498.4656 Q862.7937,498.05 863.625,498.05 Q864.1281,498.05 864.5656,498.225 Q865.0031,498.4 865.375,498.75 Z "/><text fill="#000000" font-family="sans-serif" font-size="8.4" lengthAdjust="spacingAndGlyphs" textLength="59.5" x="878.325" y="504.6371">AnalysisFactory</text><line style="stroke: #A80036; stroke-width: 1.0499999999999998;" x1="817.95" x2="975.45" y1="512.4" y2="512.4"/><line style="stroke: #A80036; stroke-width: 1.0499999999999998;" x1="817.95" x2="975.45" y1="518" y2="518"/><ellipse cx="824.95" cy="525.7" fill="#84BE84" rx="2.1" ry="2.1" style="stroke: #038048; stroke-width: 0.7;"/><text fill="#000000" font-family="sans-serif" font-size="7.7" lengthAdjust="spacingAndGlyphs" textLength="140.7" x="831.25" y="528.7933">prepareAnalysis(AnalysisType):IAnalysis</text><path d="M1144.5,557.9 L1144.5,576.3461 A0,0 0 0 0 1144.5,576.3461 L1216.6,576.3461 L1219.4,600.481 L1222.2,576.3461 L1294.3,576.3461 A0,0 0 0 0 1294.3,576.3461 L1294.3,564.9 L1287.3,557.9 L1144.5,557.9 A0,0 0 0 0 1144.5,557.9 " fill="#FBFB77" filter="url(#fgt9eqjctfphl)" style="stroke: #A80036; stroke-width: 0.7;"/><path d="M1287.3,557.9 L1287.3,564.9 L1294.3,564.9 L1287.3,557.9 " fill="#FBFB77" style="stroke: #A80036; stroke-width: 0.7;"/><text fill="#000000" font-family="sans-serif" font-size="9.1" lengthAdjust="spacingAndGlyphs" textLength="135.1" x="1148.7" y="570.8466">The number of cases in a country</text><path d="M1118.6,447.3 L1118.6,465.7461 A0,0 0 0 0 1118.6,465.7461 L1216.6,465.7461 L1219.4,489.881 L1222.2,465.7461 L1320.2,465.7461 A0,0 0 0 0 1320.2,465.7461 L1320.2,454.3 L1313.2,447.3 L1118.6,447.3 A0,0 0 0 0 1118.6,447.3 " fill="#FBFB77" filter="url(#fgt9eqjctfphl)" style="stroke: #A80036; stroke-width: 0.7;"/><path d="M1313.2,447.3 L1313.2,454.3 L1320.2,454.3 L1313.2,447.3 " fill="#FBFB77" style="stroke: #A80036; stroke-width: 0.7;"/><text fill="#000000" font-family="sans-serif" font-size="9.1" lengthAdjust="spacingAndGlyphs" textLength="186.9" x="1122.8" y="460.2466">The number of cases divided by the population</text><path d="M1117.2,94.5 L1117.2,112.9461 A0,0 0 0 0 1117.2,112.9461 L1216.6,112.9461 L1219.4,137.081 L1222.2,112.9461 L1321.6,112.9461 A0,0 0 0 0 1321.6,112.9461 L1321.6,101.5 L1314.6,94.5 L1117.2,94.5 A0,0 0 0 0 1117.2,94.5 " fill="#FBFB77" filter="url(#fgt9eqjctfphl)" style="stroke: #A80036; stroke-width: 0.7;"/><path d="M1314.6,94.5 L1314.6,101.5 L1321.6,101.5 L1314.6,94.5 " fill="#FBFB77" style="stroke: #A80036; stroke-width: 0.7;"/><text fill="#000000" font-family="sans-serif" font-size="9.1" lengthAdjust="spacingAndGlyphs" textLength="189.7" x="1121.4" y="107.4466">The number of deaths divided by the population</text><path d="M1117.55,324.45 L1117.55,354.3422 A0,0 0 0 0 1117.55,354.3422 L1216.6,354.3422 L1219.4,379.204 L1222.2,354.3422 L1321.25,354.3422 A0,0 0 0 0 1321.25,354.3422 L1321.25,331.45 L1314.25,324.45 L1117.55,324.45 A0,0 0 0 0 1117.55,324.45 " fill="#FBFB77" filter="url(#fgt9eqjctfphl)" style="stroke: #A80036; stroke-width: 0.7;"/><path d="M1314.25,324.45 L1314.25,331.45 L1321.25,331.45 L1314.25,324.45 " fill="#FBFB77" style="stroke: #A80036; stroke-width: 0.7;"/><text fill="#000000" font-family="sans-serif" font-size="9.1" lengthAdjust="spacingAndGlyphs" textLength="189" x="1121.75" y="337.3966">Whether male deaths per male capita is higher</text><text fill="#000000" font-family="sans-serif" font-size="9.1" lengthAdjust="spacingAndGlyphs" textLength="149.1" x="1121.75" y="348.8427">than female deaths per female capita</text><path d="M445.9,424.55 L445.9,454.4422 A0,0 0 0 0 445.9,454.4422 L507.5,454.4422 L510.3,491.547 L513.1,454.4422 L574.7,454.4422 A0,0 0 0 0 574.7,454.4422 L574.7,431.55 L567.7,424.55 L445.9,424.55 A0,0 0 0 0 445.9,424.55 " fill="#FBFB77" filter="url(#fgt9eqjctfphl)" style="stroke: #A80036; stroke-width: 0.7;"/><path d="M567.7,424.55 L567.7,431.55 L574.7,431.55 L567.7,424.55 " fill="#FBFB77" style="stroke: #A80036; stroke-width: 0.7;"/><text fill="#000000" font-family="sans-serif" font-size="9.1" lengthAdjust="spacingAndGlyphs" textLength="114.1" x="450.1" y="437.4966">Also used for choosing what</text><text fill="#000000" font-family="sans-serif" font-size="9.1" lengthAdjust="spacingAndGlyphs" textLength="109.2" x="452.9" y="448.9427">type of analysis to execute</text><path d="M2217.6,185.15 L2217.6,237.9344 A0,0 0 0 0 2217.6,237.9344 L2316.65,237.9344 L2319.45,262.381 L2322.25,237.9344 L2421.3,237.9344 A0,0 0 0 0 2421.3,237.9344 L2421.3,192.15 L2414.3,185.15 L2217.6,185.15 A0,0 0 0 0 2217.6,185.15 " fill="#FBFB77" filter="url(#fgt9eqjctfphl)" style="stroke: #A80036; stroke-width: 0.7;"/><path d="M2414.3,185.15 L2414.3,192.15 L2421.3,192.15 L2414.3,185.15 " fill="#FBFB77" style="stroke: #A80036; stroke-width: 0.7;"/><text fill="#000000" font-family="sans-serif" font-size="9.1" lengthAdjust="spacingAndGlyphs" textLength="189" x="2221.8" y="198.0966">Takes a country in its constructor to determine</text><text fill="#000000" font-family="sans-serif" font-size="9.1" lengthAdjust="spacingAndGlyphs" textLength="177.8" x="2221.8" y="209.5427">which country's data to retrieve from the API</text><text fill="#000000" font-family="sans-serif" font-size="9.1" lengthAdjust="spacingAndGlyphs" textLength="184.8" x="2224.6" y="220.9888">it is up to the implementor to determine which</text><text fill="#000000" font-family="sans-serif" font-size="9.1" lengthAdjust="spacingAndGlyphs" textLength="78.4" x="2221.8" y="232.4349">URL to ask for data</text><path d="M2207.8,350 L2207.8,368.4461 A0,0 0 0 0 2207.8,368.4461 L2431.1,368.4461 A0,0 0 0 0 2431.1,368.4461 L2431.1,357 L2424.1,350 L2322.25,350 L2319.45,325.689 L2316.65,350 L2207.8,350 A0,0 0 0 0 2207.8,350 " fill="#FBFB77" filter="url(#fgt9eqjctfphl)" style="stroke: #A80036; stroke-width: 0.7;"/><path d="M2424.1,350 L2424.1,357 L2431.1,357 L2424.1,350 " fill="#FBFB77" style="stroke: #A80036; stroke-width: 0.7;"/><text fill="#000000" font-family="sans-serif" font-size="9.1" lengthAdjust="spacingAndGlyphs" textLength="208.6" x="2212" y="362.9466">Can be lazy: Make API call only when its accessed</text><path d="M1722.7,190.4 L1722.7,208.8461 A0,0 0 0 0 1722.7,208.8461 L1879.5,208.8461 L1882.3,233.275 L1885.1,208.8461 L2041.9,208.8461 A0,0 0 0 0 2041.9,208.8461 L2041.9,197.4 L2034.9,190.4 L1722.7,190.4 A0,0 0 0 0 1722.7,190.4 " fill="#FBFB77" filter="url(#fgt9eqjctfphl)" style="stroke: #A80036; stroke-width: 0.7;"/><path d="M2034.9,190.4 L2034.9,197.4 L2041.9,197.4 L2034.9,190.4 " fill="#FBFB77" style="stroke: #A80036; stroke-width: 0.7;"/><text fill="#000000" font-family="sans-serif" font-size="9.1" lengthAdjust="spacingAndGlyphs" textLength="304.5" x="1726.9" y="203.3466">All Country objects that represent a single country can be a single instance</text><!--MD5=[520f931e0683038a2eb646fc68066c4d]
reverse link APIInformationGetter to CountryPopulationAPIGetter--><path d="M2393.405,281.547 C2419.018,277.2 2447.837,272.3 2473.751,267.897 " fill="none" id="APIInformationGetter&lt;-CountryPopulationAPIGetter" style="stroke: #A80036; stroke-width: 0.7;"/><polygon fill="none" points="2394.168,286.391,2379.545,283.906,2392.53,276.731,2394.168,286.391" style="stroke: #A80036; stroke-width: 0.7;"/><!--MD5=[4cb7aa4b0fd252a46563a07bde3f6112]
reverse link APIInformationGetter to CountryCaseAPIGetter--><path d="M2392.551,314.65 C2406.236,320.6 2419.788,328.083 2431.1,337.4 C2481.57,378.945 2517.515,447.538 2536.149,489.468 " fill="none" id="APIInformationGetter&lt;-CountryCaseAPIGetter" style="stroke: #A80036; stroke-width: 0.7;"/><polygon fill="none" points="2390.633,319.158,2379.461,309.407,2394.28,310.065,2390.633,319.158" style="stroke: #A80036; stroke-width: 0.7;"/><!--MD5=[979fbda0386eabad761374e05281db2b]
reverse link APIInformationGetter to CountryDeathAPIGetter--><path d="M2392.418,270.347 C2405.788,264.579 2419.249,257.761 2431.1,249.9 C2453.647,234.934 2453.906,224.847 2473.8,206.5 C2484.048,197.05 2495.409,187.215 2506.189,178.157 " fill="none" id="APIInformationGetter&lt;-CountryDeathAPIGetter" style="stroke: #A80036; stroke-width: 0.7;"/><polygon fill="none" points="2394.238,274.897,2379.419,275.653,2390.528,265.825,2394.238,274.897" style="stroke: #A80036; stroke-width: 0.7;"/><!--MD5=[0834c363ca2287af2a250be67555bd5f]
reverse link IAPI to APIInformationGetter--><path d="M1934.191,390.656 C1965.397,384.139 2006.039,375.382 2041.9,366.8 C2117.304,348.761 2203.614,325.668 2259.537,310.387 " fill="none" id="IAPI&lt;-APIInformationGetter" style="stroke: #A80036; stroke-width: 0.7; stroke-dasharray: 7.0,7.0;"/><polygon fill="none" points="1935.052,395.479,1920.352,393.526,1933.064,385.882,1935.052,395.479" style="stroke: #A80036; stroke-width: 0.7;"/><polygon fill="#000000" points="2075.15,323.173,2070.95,325.273,2075.15,327.373,2075.15,323.173" style="stroke: #000000; stroke-width: 0.7;"/><text fill="#000000" font-family="sans-serif" font-size="9.1" lengthAdjust="spacingAndGlyphs" textLength="100.1" x="2079.35" y="327.9466">gets API call format from</text><!--MD5=[a9814d36a08467623e05b4713bbbdc7b]
link Country to APIInformationGetter--><path d="M1931.72,294 C2012.171,294 2172.52,294 2259.439,294 " fill="none" id="Country-APIInformationGetter" style="stroke: #A80036; stroke-width: 0.7;"/><polygon fill="#000000" points="2068.5,286.773,2064.3,288.873,2068.5,290.973,2068.5,286.773" style="stroke: #000000; stroke-width: 0.7;"/><text fill="#000000" font-family="sans-serif" font-size="9.1" lengthAdjust="spacingAndGlyphs" textLength="113.4" x="2072.7" y="291.5466">API call targets specified by</text><text fill="#000000" font-family="sans-serif" font-size="9.1" lengthAdjust="spacingAndGlyphs" textLength="4.9" x="1937.3933" y="304.0908">1</text><text fill="#000000" font-family="sans-serif" font-size="9.1" lengthAdjust="spacingAndGlyphs" textLength="3.5" x="2250.4384" y="303.9716">*</text><!--MD5=[293aa0fb4f8ce2e3e39dbb34cb13a877]
link CountryListBuilder to Country--><path d="M1533.763,294 C1617.805,294 1758.799,294 1832.831,294 " fill="none" id="CountryListBuilder-Country" style="stroke: #A80036; stroke-width: 0.7;"/><text fill="#000000" font-family="sans-serif" font-size="9.1" lengthAdjust="spacingAndGlyphs" textLength="53.2" x="1607.55" y="291.5466">builds lists of</text><polygon fill="#000000" points="1662.85,286.773,1667.05,288.873,1662.85,290.973,1662.85,286.773" style="stroke: #000000; stroke-width: 0.7;"/><text fill="#000000" font-family="sans-serif" font-size="9.1" lengthAdjust="spacingAndGlyphs" textLength="4.9" x="1539.2076" y="303.8975">1</text><text fill="#000000" font-family="sans-serif" font-size="9.1" lengthAdjust="spacingAndGlyphs" textLength="3.5" x="1823.7289" y="304.0908">*</text><!--MD5=[222f1413cad3ba2e85010accb3c86b80]
link IAnalysis to Country--><path d="M1529.633,384.657 C1613.066,363.167 1757.399,325.99 1832.698,306.593 " fill="none" id="IAnalysis-Country" style="stroke: #A80036; stroke-width: 0.7;"/><text fill="#000000" font-family="sans-serif" font-size="9.1" lengthAdjust="spacingAndGlyphs" textLength="115.5" x="1576.4" y="339.1466">analysis targets specified by</text><polygon fill="#000000" points="1694,334.373,1698.2,336.473,1694,338.573,1694,334.373" style="stroke: #000000; stroke-width: 0.7;"/><text fill="#000000" font-family="sans-serif" font-size="9.1" lengthAdjust="spacingAndGlyphs" textLength="3.5" x="1535.1221" y="393.2206">*</text><text fill="#000000" font-family="sans-serif" font-size="9.1" lengthAdjust="spacingAndGlyphs" textLength="4.9" x="1822.4301" y="317.9456">1</text><!--MD5=[70be5f63951d57a9cf8be347ef5bf759]
link TotalCaseAnalysis to IAnalysis--><path d="M1283.905,614.964 C1305.878,610.029 1329.615,601.783 1348.2,588 C1400.728,549.045 1434.958,478.639 1451.877,436.247 " fill="none" id="TotalCaseAnalysis-&gt;IAnalysis" style="stroke: #A80036; stroke-width: 0.7; stroke-dasharray: 7.0,7.0;"/><polygon fill="none" points="1447.362,434.343,1456.952,423.031,1456.511,437.857,1447.362,434.343" style="stroke: #A80036; stroke-width: 0.7;"/><!--MD5=[c91db3a5a5b721d5900c66f8f603c470]
link TotalCaseAnalysis to CountryCaseAPIGetter--><path d="M1283.996,631.379 C1333.192,637.588 1402.961,644.7 1464.4,644.7 C1464.4,644.7 1464.4,644.7 2320.15,644.7 C2393.258,644.7 2466.345,596.897 2510.074,561.89 " fill="none" id="TotalCaseAnalysis-CountryCaseAPIGetter" style="stroke: #A80036; stroke-width: 0.7;"/><text fill="#000000" font-family="sans-serif" font-size="9.1" lengthAdjust="spacingAndGlyphs" textLength="60.2" x="1847.65" y="642.2466">uses data from</text><polygon fill="#000000" points="1909.95,637.473,1914.15,639.573,1909.95,641.673,1909.95,637.473" style="stroke: #000000; stroke-width: 0.7;"/><!--MD5=[e63d060c8ed4f76b67365ea5eb0f27a9]
link CasesPerCapitaAnalysis to IAnalysis--><path d="M1284.031,498.848 C1304.975,493.521 1328.033,486.437 1348.2,477.4 C1375.514,465.157 1403.64,446.866 1425.375,431.263 " fill="none" id="CasesPerCapitaAnalysis-&gt;IAnalysis" style="stroke: #A80036; stroke-width: 0.7; stroke-dasharray: 7.0,7.0;"/><polygon fill="none" points="1422.561,427.252,1436.75,422.926,1428.357,435.155,1422.561,427.252" style="stroke: #A80036; stroke-width: 0.7;"/><!--MD5=[386c6cde0b2933d7e5f58ece94f73c33]
link CasesPerCapitaAnalysis to CountryCaseAPIGetter--><path d="M1283.828,527.639 C1304.443,533.001 1327.354,539.182 1348.2,545.3 C1400.308,560.595 1410.094,583.1 1464.4,583.1 C1464.4,583.1 1464.4,583.1 2320.15,583.1 C2374.932,583.1 2434.915,567.665 2479.981,552.804 " fill="none" id="CasesPerCapitaAnalysis-CountryCaseAPIGetter" style="stroke: #A80036; stroke-width: 0.7;"/><text fill="#000000" font-family="sans-serif" font-size="9.1" lengthAdjust="spacingAndGlyphs" textLength="60.2" x="1847.65" y="580.6466">uses data from</text><polygon fill="#000000" points="1909.95,575.873,1914.15,577.973,1909.95,580.073,1909.95,575.873" style="stroke: #000000; stroke-width: 0.7;"/><!--MD5=[065d2d892d6d731aaca6cf99e806ad61]
link CasesPerCapitaAnalysis to CountryPopulationAPIGetter--><path d="M1283.835,518.931 C1422.736,533.141 1762.698,559.489 2041.9,513.1 C2222.227,483.14 2277.079,478.555 2431.1,380.1 C2468.235,356.363 2502.066,318.759 2524.214,290.934 " fill="none" id="CasesPerCapitaAnalysis-CountryPopulationAPIGetter" style="stroke: #A80036; stroke-width: 0.7;"/><text fill="#000000" font-family="sans-serif" font-size="9.1" lengthAdjust="spacingAndGlyphs" textLength="60.2" x="1847.65" y="510.6466">uses data from</text><polygon fill="#000000" points="1909.95,505.873,1914.15,507.973,1909.95,510.073,1909.95,505.873" style="stroke: #000000; stroke-width: 0.7;"/><!--MD5=[06f4ecb9b046c4d8426a00aefea29621]
link DeathsPerCapitaAnalysis to IAnalysis--><path d="M1244.439,180.775 C1273.678,208.453 1322.048,258.972 1348.2,312.2 C1359.015,334.215 1343.699,347.851 1360.1,366.1 C1367.597,374.437 1377.138,380.793 1387.4,385.637 " fill="none" id="DeathsPerCapitaAnalysis-&gt;IAnalysis" style="stroke: #A80036; stroke-width: 0.7; stroke-dasharray: 7.0,7.0;"/><polygon fill="none" points="1389.528,381.213,1400.672,390.999,1385.853,390.299,1389.528,381.213" style="stroke: #A80036; stroke-width: 0.7;"/><!--MD5=[ced3f39023993b6950e16c3f36ddf529]
link DeathsPerCapitaAnalysis to CountryDeathAPIGetter--><path d="M1283.996,156.674 C1307.607,152.46 1332.422,143.374 1348.2,124.6 C1357.244,113.841 1345.372,72.849 1353.8,61.6 C1385.454,19.334 1411.592,18.2 1464.4,18.2 C1464.4,18.2 1464.4,18.2 2320.15,18.2 C2382.184,18.2 2398.424,31.759 2452.8,61.6 C2474.612,73.57 2496.263,90.657 2513.644,106.015 " fill="none" id="DeathsPerCapitaAnalysis-CountryDeathAPIGetter" style="stroke: #A80036; stroke-width: 0.7;"/><text fill="#000000" font-family="sans-serif" font-size="9.1" lengthAdjust="spacingAndGlyphs" textLength="60.2" x="1847.65" y="15.7466">uses data from</text><polygon fill="#000000" points="1909.95,10.973,1914.15,13.073,1909.95,15.173,1909.95,10.973" style="stroke: #000000; stroke-width: 0.7;"/><!--MD5=[39633927ed50d853bf39a6fefc2e8311]
link DeathsPerCapitaAnalysis to CountryPopulationAPIGetter--><path d="M1284.024,143.213 C1304.646,137.774 1327.515,131.334 1348.2,124.6 C1400.833,107.464 1409.051,79.8 1464.4,79.8 C1464.4,79.8 1464.4,79.8 2320.15,79.8 C2382.184,79.8 2409.232,79.044 2452.8,123.2 C2474.78,145.474 2456.426,164.374 2473.8,190.4 C2480.667,200.69 2489.648,210.231 2499.042,218.638 " fill="none" id="DeathsPerCapitaAnalysis-CountryPopulationAPIGetter" style="stroke: #A80036; stroke-width: 0.7;"/><text fill="#000000" font-family="sans-serif" font-size="9.1" lengthAdjust="spacingAndGlyphs" textLength="60.2" x="1847.65" y="77.3466">uses data from</text><polygon fill="#000000" points="1909.95,72.573,1914.15,74.673,1909.95,76.773,1909.95,72.573" style="stroke: #000000; stroke-width: 0.7;"/><!--MD5=[734a7b0281af1b4153802e641aa8fc20]
link MajorityCaseSexPerCapitaAnalysis to IAnalysis--><path d="M1298.073,401.1 C1326.318,401.1 1358.21,401.1 1386.455,401.1 " fill="none" id="MajorityCaseSexPerCapitaAnalysis-&gt;IAnalysis" style="stroke: #A80036; stroke-width: 0.7; stroke-dasharray: 7.0,7.0;"/><polygon fill="none" points="1386.637,396.2,1400.637,401.1,1386.637,406,1386.637,396.2" style="stroke: #A80036; stroke-width: 0.7;"/><!--MD5=[d49b5d0d2e9fccb32fa03ed91bda40a0]
link MajorityCaseSexPerCapitaAnalysis to CountryCaseAPIGetter--><path d="M1297.961,422.114 C1318.079,426.895 1339.793,431.508 1360.1,434.7 C1578.283,468.993 2258.067,509.236 2479.96,521.773 " fill="none" id="MajorityCaseSexPerCapitaAnalysis-CountryCaseAPIGetter" style="stroke: #A80036; stroke-width: 0.7;"/><text fill="#000000" font-family="sans-serif" font-size="9.1" lengthAdjust="spacingAndGlyphs" textLength="60.2" x="1847.65" y="470.0466">uses data from</text><polygon fill="#000000" points="1909.95,465.273,1914.15,467.373,1909.95,469.473,1909.95,465.273" style="stroke: #000000; stroke-width: 0.7;"/><!--MD5=[fe97286132cb9959cfd2b49f9f2febdd]
link MajorityCaseSexPerCapitaAnalysis to CountryPopulationAPIGetter--><path d="M1298.094,395.829 C1317.106,390.754 1335.586,381.913 1348.2,366.8 C1368.906,341.999 1344.672,250.292 1360.1,221.9 C1388.058,170.45 1405.845,141.4 1464.4,141.4 C1464.4,141.4 1464.4,141.4 2320.15,141.4 C2391.319,141.4 2463.342,185.423 2507.526,218.61 " fill="none" id="MajorityCaseSexPerCapitaAnalysis-CountryPopulationAPIGetter" style="stroke: #A80036; stroke-width: 0.7;"/><text fill="#000000" font-family="sans-serif" font-size="9.1" lengthAdjust="spacingAndGlyphs" textLength="60.2" x="1847.65" y="138.9466">uses data from</text><polygon fill="#000000" points="1909.95,134.173,1914.15,136.273,1909.95,138.373,1909.95,134.173" style="stroke: #000000; stroke-width: 0.7;"/><!--MD5=[418b9088b6f397144e25fa6d022d09a3]
link AnalysisResultRenderer to AnalysisExecutor--><path d="M178.836,680.316 C226.73,661.78 292.523,636.314 352.828,612.976 " fill="none" id="AnalysisResultRenderer-&gt;AnalysisExecutor" style="stroke: #A80036; stroke-width: 0.7;"/><polygon fill="#A80036" points="356.244,611.653,349.3582,611.3125,352.9794,612.9148,351.3771,616.5359,356.244,611.653" style="stroke: #A80036; stroke-width: 0.7;"/><text fill="#000000" font-family="sans-serif" font-size="9.1" lengthAdjust="spacingAndGlyphs" textLength="70" x="234.5" y="617.7466">renders results of</text><polygon fill="#000000" points="306.6,612.973,310.8,615.073,306.6,617.173,306.6,612.973" style="stroke: #000000; stroke-width: 0.7;"/><!--MD5=[900277fa20cdd285d71719cb837a2bfc]
link AnalysisType to AnalysisExecutor--><path d="M176.575,552.3 C225.554,552.3 294.112,552.3 356.3,552.3 " fill="none" id="AnalysisType-AnalysisExecutor" style="stroke: #A80036; stroke-width: 0.7;"/><polygon fill="#000000" points="232.75,545.073,228.55,547.173,232.75,549.273,232.75,545.073" style="stroke: #000000; stroke-width: 0.7;"/><text fill="#000000" font-family="sans-serif" font-size="9.1" lengthAdjust="spacingAndGlyphs" textLength="83.3" x="236.95" y="549.8466">analysis selected by</text><!--MD5=[167a0006da50d5c7b812487b01861449]
link AnalysisFactory to CasesPerCapitaAnalysis--><path d="M976.206,511.7 C1029.819,511.7 1100.029,511.7 1151.101,511.7 " fill="none" id="AnalysisFactory-&gt;CasesPerCapitaAnalysis" style="stroke: #A80036; stroke-width: 0.7; stroke-dasharray: 7.0,7.0;"/><polygon fill="#A80036" points="1154.741,511.7,1148.441,508.9,1151.241,511.7,1148.441,514.5,1154.741,511.7" style="stroke: #A80036; stroke-width: 0.7;"/><text fill="#000000" font-family="sans-serif" font-size="9.1" lengthAdjust="spacingAndGlyphs" textLength="55.3" x="1030.4" y="509.2466">can construct</text><!--MD5=[90b9f4e30abbf7ed9a8a15a2c31d62f6]
link AnalysisFactory to DeathsPerCapitaAnalysis--><path d="M917.259,489.895 C974.001,427.588 1136.618,249.025 1196.349,183.442 " fill="none" id="AnalysisFactory-&gt;DeathsPerCapitaAnalysis" style="stroke: #A80036; stroke-width: 0.7; stroke-dasharray: 7.0,7.0;"/><polygon fill="#A80036" points="1198.771,180.782,1192.4581,183.5529,1196.4137,183.3691,1196.5975,187.3246,1198.771,180.782" style="stroke: #A80036; stroke-width: 0.7;"/><text fill="#000000" font-family="sans-serif" font-size="9.1" lengthAdjust="spacingAndGlyphs" textLength="55.3" x="1030.4" y="311.8466">can construct</text><!--MD5=[cf02af27d73e34ec197b2fad410e26d4]
link AnalysisFactory to MajorityCaseSexPerCapitaAnalysis--><path d="M953.904,489.965 C996.002,474.026 1055.005,452.2 1107.4,434.7 C1118.243,431.081 1129.737,427.413 1141.063,423.906 " fill="none" id="AnalysisFactory-&gt;MajorityCaseSexPerCapitaAnalysis" style="stroke: #A80036; stroke-width: 0.7; stroke-dasharray: 7.0,7.0;"/><polygon fill="#A80036" points="1144.57,422.821,1137.7253,421.9961,1141.2246,423.8496,1139.3711,427.3488,1144.57,422.821" style="stroke: #A80036; stroke-width: 0.7;"/><text fill="#000000" font-family="sans-serif" font-size="9.1" lengthAdjust="spacingAndGlyphs" textLength="55.3" x="1030.4" y="440.6466">can construct</text><!--MD5=[ce5df1769525864c43ce7d54cc7c51ba]
link AnalysisFactory to TotalCaseAnalysis--><path d="M954.842,533.442 C996.898,549.15 1055.453,570.57 1107.4,588 C1121.596,592.767 1136.898,597.639 1151.472,602.168 " fill="none" id="AnalysisFactory-&gt;TotalCaseAnalysis" style="stroke: #A80036; stroke-width: 0.7; stroke-dasharray: 7.0,7.0;"/><polygon fill="#A80036" points="1154.958,603.253,1149.7629,598.7208,1151.6134,602.2216,1148.1126,604.0721,1154.958,603.253" style="stroke: #A80036; stroke-width: 0.7;"/><text fill="#000000" font-family="sans-serif" font-size="9.1" lengthAdjust="spacingAndGlyphs" textLength="55.3" x="1030.4" y="559.6466">can construct</text><!--MD5=[2567c61ac98dbbc96758dbdfcaf23888]
link AnalysisExecutor to AnalysisFactory--><path d="M664.545,536.109 C715.407,530.747 770.049,524.979 813.463,520.401 " fill="none" id="AnalysisExecutor-&gt;AnalysisFactory" style="stroke: #A80036; stroke-width: 0.7;"/><polygon fill="#A80036" points="817.096,520.023,810.5353,517.9048,813.6156,520.393,811.1273,523.4734,817.096,520.023" style="stroke: #A80036; stroke-width: 0.7;"/><text fill="#000000" font-family="sans-serif" font-size="9.1" lengthAdjust="spacingAndGlyphs" textLength="75.6" x="687.4" y="523.9466">gets Analysis from</text><!--MD5=[31f6a81d8e9754c056ce36dd0dc3b257]
link ProportionalResultRenderer to IResultRenderer--><path d="M1008.875,758.345 C1036.084,755.496 1065.379,752.43 1093.197,749.525 " fill="none" id="ProportionalResultRenderer-&gt;IResultRenderer" style="stroke: #A80036; stroke-width: 0.7; stroke-dasharray: 7.0,7.0;"/><polygon fill="none" points="1092.721,744.646,1107.155,748.062,1093.736,754.397,1092.721,744.646" style="stroke: #A80036; stroke-width: 0.7;"/><!--MD5=[9d19b8f766412b1861c218a32ea44cd3]
link InverseProportionalResultRenderer to IResultRenderer--><path d="M1008.875,714 C1036.084,716.905 1065.379,720.034 1093.197,723.002 " fill="none" id="InverseProportionalResultRenderer-&gt;IResultRenderer" style="stroke: #A80036; stroke-width: 0.7; stroke-dasharray: 7.0,7.0;"/><polygon fill="none" points="1093.75,718.13,1107.155,724.493,1092.714,727.881,1093.75,718.13" style="stroke: #A80036; stroke-width: 0.7;"/><!--MD5=[81af75f22321c5215401e858b30db8f7]
link ResultRendererFactory to ProportionalResultRenderer--><path d="M594.3,720.629 C648.879,729.561 720.951,741.356 780.969,751.177 " fill="none" id="ResultRendererFactory-&gt;ProportionalResultRenderer" style="stroke: #A80036; stroke-width: 0.7; stroke-dasharray: 7.0,7.0;"/><polygon fill="#A80036" points="784.539,751.758,778.7797,747.9685,781.0858,751.1875,777.8668,753.4936,784.539,751.758" style="stroke: #A80036; stroke-width: 0.7;"/><!--MD5=[3e6a4f5583491135cc2c282b5a5cc9e3]
link ResultRendererFactory to InverseProportionalResultRenderer--><path d="M594.3,705.943 C648.879,705.243 720.951,704.326 780.969,703.563 " fill="none" id="ResultRendererFactory-&gt;InverseProportionalResultRenderer" style="stroke: #A80036; stroke-width: 0.7; stroke-dasharray: 7.0,7.0;"/><polygon fill="#A80036" points="784.539,703.521,778.2074,700.7932,781.0392,703.561,778.2714,706.3928,784.539,703.521" style="stroke: #A80036; stroke-width: 0.7;"/><!--MD5=[49b6acfe0b529d15e07e6dc0abcb81e7]
link AnalysisResultRenderer to ResultRendererFactory--><path d="M191.989,707 C259.21,707 354.067,707 422.59,707 " fill="none" id="AnalysisResultRenderer-&gt;ResultRendererFactory" style="stroke: #A80036; stroke-width: 0.7;"/><polygon fill="#A80036" points="426.244,707,419.944,704.2,422.744,707,419.944,709.8,426.244,707" style="stroke: #A80036; stroke-width: 0.7;"/><text fill="#000000" font-family="sans-serif" font-size="9.1" lengthAdjust="spacingAndGlyphs" textLength="121.1" x="213.5" y="704.5466">gets appropriate renderer from</text><!--MD5=[362e5dba7d4462e5c9eac028eab99602]
@startuml
left to right direction
class Country{
    -longName:String
    -shortName:String
    -latitude:Double
    -longitude:Double
    +getLongName():String
    +getShortName():String
    +getLatitude():Double
    +getLongitude():Double
    +equals(Object): boolean
}
interface IAPI{
    getDataURL():String
}
abstract class APIInformationGetter{
    #targets:List<Country>
    +APIInformationGetter(Country)
    #getData():String
}
class CountryPopulationAPIGetter{
    +getPopulation():Map<Country, int>
    +getMalePopulation():Map<Country, int>
    +getFemalePopulation():Map<Country, int>
    -getDataURL(): String
}
class CountryCaseAPIGetter{
    +getMaleCases():Map<Country, int>
    +getFemaleCases():Map<Country, int>
    +getCases():Map<Country:int>
    -getDataURL(): String
}
package "Country List Add/Remove CZUC-0002/3" <<Rectangle>>{
    class CountryListBuilder{
        singleton
        master list of countries
        - -
        -CountryListBuilder()
        +getInstance():CountryListBuilder
        +getAllCountries():Country[]
        +build():List<Country>
        +addCountry(Country):Boolean
        +removeCountry(Country):Boolean
        +getCountryByName(String):Country
    }
}
class CountryDeathAPIGetter{
    +getMaleDeaths():Map<Country, int>
    +getFemaleDeaths():Map<Country, int>
    +getDeaths():Map<Country:int>
    -getDataURL(): String
}

interface IAnalysis{
    +analyze():Map<Country, Double>
}


class TotalCaseAnalysis{
    +analyze():Map<Country, Double>
}
class CasesPerCapitaAnalysis{
    +analyze():Map<Country, Double>
}
class DeathsPerCapitaAnalysis{
    +analyze():Map<Country, Double>
}
class MajorityCaseSexPerCapitaAnalysis{
    +analyze():Map<Country, Double>
}
class AnalysisFactory{
    +prepareAnalysis(AnalysisType):IAnalysis
}

package "Analysis Rendering CZUC-0006" <<Rectangle>>{
    class AnalysisResultRenderer {
        +AnalysisResultRenderer(AnalysisExecutor)
        +render()
    }

    interface IResultRenderer{
        +getCircleRadii(Map<Country, Double>):Map<Country, Integer>
    }

    class ProportionalResultRenderer{
        +getCircleRadii(Map<Country, Double>):Map<Country, Integer>
    }

    class InverseProportionalResultRenderer{
        +getCircleRadii(Map<Country, Double>):Map<Country, Integer>
    }

    class ResultRendererFactory{
        +getRenderer(AnalysisType):IResultRenderer
    }
}

package "Analysis Selection CZUC-0004" <<Rectangle>>{
    enum AnalysisType{
        TOTAL_CASES
        CASES_PER_CAPITA
        DEATHS_PER_CAPITA
        MAJORITY_CASE_SEX_PER_CAPITA
    }

    class AnalysisExecutor{
        Contains its own list of countries in order to know if the CountryListBuilder's countries
        are different from its own
        -analysisType:AnalysisType
        -countryList:List<Country>
        +runAnalysis()
        +setAnalysisType(AnalysisType)
        +getAnalysisType():AnalysisType
        +getResult():Map<Country, Double>
        +hasResult():Boolean
    }
}

package "Login System CZUC-0001" <<Rectangle>>{
    class LoginVerifier{
        +checkLogin(String, String):boolean
    }
}

note top of TotalCaseAnalysis: The number of cases in a country
note top of CasesPerCapitaAnalysis: The number of cases divided by the population
note top of DeathsPerCapitaAnalysis: The number of deaths divided by the population
note top of MajorityCaseSexPerCapitaAnalysis: Whether male deaths per male capita is higher\nthan female deaths per female capita

note top of AnalysisExecutor: Also used for choosing what\n type of analysis to execute

note top of APIInformationGetter: Takes a country in its constructor to determine\nwhich country's data to retrieve from the API\n it is up to the implementor to determine which\nURL to ask for data
note bottom of APIInformationGetter: Can be lazy: Make API call only when its accessed
note top of Country: All Country objects that represent a single country can be a single instance

APIInformationGetter <|- - CountryPopulationAPIGetter
APIInformationGetter <|- - CountryCaseAPIGetter
APIInformationGetter <|- - CountryDeathAPIGetter
IAPI <|.. APIInformationGetter: < gets API call format from
Country "1" - - "*" APIInformationGetter: API call targets specified by <
CountryListBuilder "1" - - "*" Country: builds lists of >
IAnalysis "*" - - "1" Country: analysis targets specified by >
TotalCaseAnalysis ..|> IAnalysis
TotalCaseAnalysis - - CountryCaseAPIGetter: uses data from >
CasesPerCapitaAnalysis ..|> IAnalysis
CasesPerCapitaAnalysis - - CountryCaseAPIGetter: uses data from >
CasesPerCapitaAnalysis - - CountryPopulationAPIGetter: uses data from >
DeathsPerCapitaAnalysis ..|> IAnalysis
DeathsPerCapitaAnalysis - - CountryDeathAPIGetter: uses data from >
DeathsPerCapitaAnalysis - - CountryPopulationAPIGetter: uses data from >
MajorityCaseSexPerCapitaAnalysis ..|> IAnalysis
MajorityCaseSexPerCapitaAnalysis - - CountryCaseAPIGetter: uses data from >
MajorityCaseSexPerCapitaAnalysis - - CountryPopulationAPIGetter: uses data from >
AnalysisResultRenderer - -> AnalysisExecutor: renders results of >
AnalysisExecutor -up- AnalysisType: analysis selected by >
AnalysisFactory ..> CasesPerCapitaAnalysis: can construct
AnalysisFactory ..> DeathsPerCapitaAnalysis: can construct
AnalysisFactory ..> MajorityCaseSexPerCapitaAnalysis: can construct
AnalysisFactory ..> TotalCaseAnalysis: can construct
AnalysisExecutor - -> AnalysisFactory: gets Analysis from
ProportionalResultRenderer ..|> IResultRenderer
InverseProportionalResultRenderer ..|> IResultRenderer
ResultRendererFactory ..> ProportionalResultRenderer
ResultRendererFactory ..> InverseProportionalResultRenderer
AnalysisResultRenderer - -> ResultRendererFactory: gets appropriate renderer from
@enduml

PlantUML version 1.2020.09(Sun May 10 06:51:06 EDT 2020)
(GPL source distribution)
Java Runtime: OpenJDK Runtime Environment
JVM: OpenJDK 64-Bit Server VM
Java Version: 11.0.8+10-b944.34
Operating System: Windows 10
Default Encoding: Cp1252
Language: en
Country: CA
--></g></svg>
